<svg xmlns="http://www.w3.org/2000/svg" viewBox="0 0 128 128"><defs><style>.cls-1{fill:none;}.cls-2{fill:#292946;}.cls-3{fill:#c59fa6;}.cls-4{fill:#8a6c9a;}.cls-5{fill:#c49fa5;}.cls-6{fill:#c29ca4;}.cls-7{fill:#f3e4cf;}.cls-8{fill:#f0e2cd;}.cls-9{fill:#4a4d7f;}.cls-10{fill:#f4f2ec;}.cls-11{fill:#876a97;}.cls-12{fill:#eddfcb;}.cls-13{fill:#4b415e;}.cls-14{fill:#b08e9b;}.cls-15{fill:#5b4d69;}.cls-16{fill:#8e8589;}</style></defs><g id="Layer_2" data-name="Layer 2"><rect class="cls-1" width="128" height="128"/></g><g id="Layer_1" data-name="Layer 1"><path class="cls-2" d="M109.78,35c1.54-.57,3.08-1.14,4.6-1.79q4.49-1.92,9-3.81c.66-.28,1.36-.5,2-.75a2.52,2.52,0,0,0,.85-.39.42.42,0,0,1,.7.14c.22.36.38.75.63,1.1.13.18-.11.33-.23.44l-2.55,2.2q-5.5,4.81-10.74,9.91l-.15.17A14.86,14.86,0,0,1,117,44.55,8.11,8.11,0,0,1,119.32,51c-.08,1.51-.49,3-.59,4.46a12.83,12.83,0,0,0,2.21,8.33,5.76,5.76,0,0,0,1.89,1.57c.16.09.33.16.48.26a1.07,1.07,0,0,1,.47,1.33,1.12,1.12,0,0,1-1.27.65,25.24,25.24,0,0,1-3.35-1,10.86,10.86,0,0,1-2.64-1.26c-.16-.11-.26-.05-.39,0-1.3,1-1.72.81-2.67-.54a9.3,9.3,0,0,1-1-1.71c-.24-.62-.41-1.2.27-1.67.17-.12.17-.33,0-.54s-.4-.68-.58-1-.35-1-1-1a1,1,0,0,1-.82-.71,10.26,10.26,0,0,1-.86-2.3,1.14,1.14,0,0,1,.38-1.32c.08-.06.17-.14.15-.24-.09-.54-.2-1.07-.3-1.6,0-.07-.09-.09-.16-.09a2.31,2.31,0,0,1-1.42-.54c-.4,6.38-.15,12.69,0,19-.07.1-.09.2,0,.29l.07,2.88a.29.29,0,0,0,0,.39l0,4.57c-.08.44-.09.91-.76.84-.18,0-.07.17,0,.26.08.27.43.37.42.69C101.33,86,95,91.22,88.69,96.53c-3.24,2.75-6.46,5.52-9.69,8.27-.77.65-1.59,1.24-2.36,1.9a8.74,8.74,0,0,1-1.5.82,1.38,1.38,0,0,1-1.2-.09c-7.76-3.13-15.58-6.12-22.93-10.2-4.1-2.27-8.09-4.73-12.19-7a47,47,0,0,1-6-3.55,1.46,1.46,0,0,1-.67-1.27,38.07,38.07,0,0,0-.44-4.28c-.19-1.84-.44-3.67-.66-5.51q-.48-4-1.13-7.93c-.09-.55-.13-1.11-.2-1.67a.88.88,0,0,0,0-.29c-1-1.69-1.19-3.65-1.81-5.47-.06-.18-.11-.36-.19-.65-.27.44-.5.78-.69,1.15a.69.69,0,0,1-.89.42c-.29-.09-.46,0-.53.3a3.65,3.65,0,0,1-.22.66c-.14.35-.3.64.2.91a.84.84,0,0,1,.31.94c-.16.58-.35,1.16-.54,1.74-.11.35-.46.46-.73.62a.39.39,0,0,0-.24.41,7.84,7.84,0,0,0,.39,2.63c.24.71.53,1.41.82,2.11.19.46.08.75-.4.81a1.83,1.83,0,0,1-1.81-.61,20.55,20.55,0,0,1-4.16-6.56,14.4,14.4,0,0,1-.66-8.68A9.41,9.41,0,0,1,20.37,53c-.62-.22-1.23-.42-1.81-.67-2.82-1.21-5.83-1.76-8.73-2.7q-3.09-1-6.1-2.2c-.79-.32-1.61-.58-2.43-.82A.52.52,0,0,1,.85,46c0-.54,0-1.09,0-1.63,0-.3,0-.4.38-.38,1.49.13,3,.21,4.49.33,1.85.15,3.71.34,5.57.49q3.81.33,7.64.62c1.6.12,3.2.19,4.8.28.13,0,.3.07.37-.14.18-.63.72-.92,1.18-1.29s.65-.5,1-.74c.18-.14.16-.23,0-.38-2.63-2.72-5.24-5.48-8.51-7.46-.46-.29-.75-.75-1.24-1a.15.15,0,0,1-.07-.12c0-.66-.05-1.31,0-2,0-.35.35-.51.7-.45a35.93,35.93,0,0,0,3.74,0c1.76.1,3.52.16,5.27.36a55.73,55.73,0,0,0,5.78.4c.25,0,.3,0,.25-.31a1.33,1.33,0,0,1,.39-1.36c.16-.15.29-.19.39.08.25.65.86,1,1.33,1.43a.75.75,0,0,0,.61.13c1.44-.09,2.87-.1,4.31-.1a6,6,0,0,0,2-.64c5.38-1.94,10.7-4,16.09-5.9a4,4,0,0,0,1.32-.52c.21-.16.37,0,.48.17.37.59.77,1.16,1.09,1.77.22.41.35.51.77.19A21.73,21.73,0,0,1,64.17,26a6.2,6.2,0,0,1,5.7,0,20,20,0,0,1,3.75,2.18c.26.2.33.14.48-.13a4.72,4.72,0,0,1,1.22-1.3.8.8,0,0,1,.71-.1,90.29,90.29,0,0,1,9.4,2.89c1.63.59,3.27,1.13,4.89,1.75a3.16,3.16,0,0,0,2,.07c3.9-1,7.82-2,11.72-3a92,92,0,0,0,10.12-3.18c.31-.12.38-.08.44.23.15.74.33,1.48.52,2.21.07.28-.1.43-.25.6-1.84,2.12-3.54,4.36-5.23,6.6a2.19,2.19,0,0,0-.65.92C109.45,35.66,109.47,35.19,109.78,35ZM76.2,84.14h0l-.11.1h0A8,8,0,0,0,75,85a1.24,1.24,0,0,0-.5,1.71,4.93,4.93,0,0,0,0,.54c.14,1,.29,2.09.43,3.13-.14.13-.12.23,0,.31l0,.39c-.12.11-.1.21,0,.3l.08.59c-.1.07-.08.14,0,.2l.08.4c-.1.07-.08.13,0,.19a1.18,1.18,0,0,0,.09.59,3.38,3.38,0,0,0,0,.45c.31,3.12.62,6.25.94,9.37-.05.27-.09.54-.46.54a.56.56,0,0,1-.19-.53,5.44,5.44,0,0,0,0-1c-.32-1.77-.33-3.57-.56-5.35-.15-1.22-.27-2.45-.41-3.68,0-.27.14-.63-.37-.6a12.12,12.12,0,0,1-2.82-.38c-1.52-.24-3-.62-4.52-.94l-.23-.1c-.12-.07-.31-.08-.32-.26s.21-.24.35-.28a6.6,6.6,0,0,0,1.08-.49c.54-.22.59-.37.26-.88-.51-.81-.51-.81.32-1.34.23-.15.35-.31.13-.6S68,86.43,67.67,86s-.2-.51.23-.59c.2,0,.43.08.62-.09.16,0,.13-.1,0-.18A6.2,6.2,0,0,0,67.31,84c0-.12-.19-.22-.06-.36s.27-.07.41,0c1.85.51,3.7,1,5.58,1.36.41.09.52,0,.51-.41a15.72,15.72,0,0,1,.06-1.68c.17-2.11.39-4.21.53-6.32.17-2.39.37-4.78.57-7.16s.42-4.74.51-7.12c0-.18.18-.39,0-.55s-.33.09-.48.16-.41.22-.62.3c-2.92,1.17-5.73,2.55-8.53,4-2.23,1.11-4.49,2.15-6.73,3.23a3.16,3.16,0,0,0-1.41,1.08c-.44.64-.74.63-1.36.23a.55.55,0,0,0-.18-.06c-.2-.39-.64-.24-.92-.41-.52-.31-1-.62-1.56-1C50.8,67.55,48,65.76,45.2,64a7.72,7.72,0,0,0-1.91-1.1l-.1-.08-.1-.11h0a.21.21,0,0,0-.19-.12h0l-.11-.08c-1.27-1-2.63-1.82-4-2.68a12.89,12.89,0,0,0-3-1.57c-.28-.09-.55-.21-.83-.32-2-.77-4.06-1.54-6.13-2.19-.12,0-.25-.15-.37,0s0,.25,0,.38c.16.55.31,1.11.46,1.66l.08.09h0c.18,1,.5,2,.77,3a38.33,38.33,0,0,0,2,6c.85,1.66,1.71,3.31,2.56,5l1.36,2.58c.13.26.23.52-.24.49a2.74,2.74,0,0,0-.88-.46v.47c0,.53,0,1,0,1.58,0,.15,0,.32-.14.39s-.24,0-.31-.17-.22-.13-.35-.1-.17.19-.17.32,0,.37,0,.55c0,.83.46,1.72-.21,2.5,0,0,0,.13,0,.19.07.63.15,1.25.22,1.87a.17.17,0,0,0,0,.21h0a12.45,12.45,0,0,1,0,1.93,8.26,8.26,0,0,0,.41,1.82.34.34,0,0,0,.25.28l2.22.82.65.35c4.12,2.09,8,4.55,12.07,6.79,1.27.71,2.51,1.49,3.85,2.09l.18.11h0l.2.11h0l.21.11h0a.23.23,0,0,0,.21.11h0a.23.23,0,0,0,.21.11h0a.2.2,0,0,0,.2.11h0a.88.88,0,0,0,.15.12q2.63,1.36,5.33,2.6c.09,0,.17.1.28.07h0c0,.11.11.12.21.11h0c0,.1.11.12.2.11h0a.18.18,0,0,0,.2.1h0a.28.28,0,0,0,.21.1h0a.34.34,0,0,0,.31.11h0a.18.18,0,0,0,.21.1h0a.2.2,0,0,0,.21.11h0l.08.05a5.2,5.2,0,0,0,.53.26q5.44,2.25,10.91,4.47a8.7,8.7,0,0,0,1.86.64c.15.12.3.2.48,0l2-1.88a.92.92,0,0,0,.21-.13C82,99.87,86.43,96,90.94,92.22c3.56-3,7.15-5.91,10.8-8.77,1.19-.94,2.43-1.82,3.56-2.84.49-.35,1-.7,1.48-1.07a.6.6,0,0,0,.27-.45c.06-1.21,0-2.42,0-3.64,0-1.89,0-3.79-.14-5.68q0-3.73-.08-7.47a1.31,1.31,0,0,0-.15-.51c-.32-.76-.75-1.19-1.63-.76-.24.12-.4,0-.43-.34s0-.69,0-1c-.19-.37-.51-.2-.78-.19s-.51.19-.7,0,0-.46.1-.69a.08.08,0,0,0,0,0c.05-.1.15-.21,0-.31s-.18,0-.28,0l-1.07.36c-.16,0-.33.17-.46,0s0-.28.13-.4c.67-1,1.48-1.93,2.21-2.9h.23l-2.17,3a8,8,0,0,1,.86-.31c.31-.08.68-.38.92-.15s0,.61-.18.9-.05.32.23.26a1.51,1.51,0,0,1,1.19.16c.09.38-.08.75,0,1.13,0,.19.07.3.31.23.62-.19,1.26-.41,1.57.5V57.87c.08-1.25,0-2.52.13-3.77a.33.33,0,0,0,0-.5l.07-2c.29-.28,0-.49-.08-.72a1.29,1.29,0,0,0,0-1.07c0-.76.42-1.42.48-2.16,0-.16.08-.35,0-.47s-.31,0-.46,0C103.48,48.84,100,50.4,96.56,52c-2.41,1.13-4.79,2.35-7.18,3.53-1.29.65-2.59,1.29-3.85,2-.38.18-.78.35-1.16.54A56.68,56.68,0,0,1,76,61.72c-.19.1-.11.29-.11.44,0,.61,0,1.23,0,1.84-.08,3.47-.42,6.92-.66,10.38-.11,1.73-.25,3.45-.38,5.18-.1,1.44-.21,2.87-.32,4.3a4,4,0,0,0,0,1,17.09,17.09,0,0,0,2.62-1.94c.06,0,.12-.06.1-.14h0c.2,0,.3-.13.43-.22l3-2.08,0,.22-.35.27c-1.35,1-2.77,1.94-4,3.07Zm8-34.51h0a.2.2,0,0,0,.12-.19h0l.09-.11h0a.18.18,0,0,0,.12-.19h0l.11-.11.15-.12L85,49c-.1.17-.2.35-.31.51q-2.93,4.22-6,8.32a11.1,11.1,0,0,0-1.53,2.36l0,.06.06,0c.2,0,.34-.09.51-.17,2.35-1.12,4.64-2.38,6.92-3.62q9.18-5,18.69-9.34c1.25-.57,2.52-1.13,3.79-1.67a18.32,18.32,0,0,0,3.21-2c.9-.62,1.61-1.47,2.48-2.13,1.6-1.2,3-2.62,4.5-3.94,1.67-1.48,3.35-3,5-4.44.39-.36.93-.58,1.13-1.13h0c.11,0,.18,0,.2-.1h.12A7.33,7.33,0,0,0,125,30.51h0a.2.2,0,0,0,.18-.11l.46-.37c.12-.09.25-.16.17-.36s-.27-.15-.42-.09a6.51,6.51,0,0,0-.71.33,71.28,71.28,0,0,1-9.6,4.34,42.75,42.75,0,0,1-5.75,2.06c-1.33.3-2.56,1-3.89,1.42-2.37.75-4.72,1.57-7.12,2.23-2.86.78-5.74,1.52-8.63,2.16a13.11,13.11,0,0,0-2.81.74c.22.22.43.4.62.6s.28.27.08.41-.34,0-.43-.18a2.1,2.1,0,0,1-.13-.26c-.12-.21-.25-.32-.44-.06s-.2.18-.26.3c-.7,1.26-1.67,2.33-2.44,3.55-1.58,2.52-3.08,5.09-4.59,7.65-1,1.68-2,3.37-2.93,5-.08.13-.14.24,0,.35s.2-.07.25-.16c.76-1.17,1.56-2.29,2.41-3.39,1.75-2.28,3.47-4.58,5.1-7ZM67.1,63.43a.25.25,0,0,0,.23-.11s.14,0,.1-.07-.1,0-.14,0-.17,0-.21.12l-.16.06s0,0,0,0A.12.12,0,0,0,67.1,63.43ZM33.76,55h0c-.05-.1-.14-.1-.23-.1h0A12.57,12.57,0,0,0,31.33,54Q21.67,50.58,12,47.18a11,11,0,0,0-2.64-.8l-.54-.08C6.94,46,5.1,45.47,3.26,45c-.39-.1-1,.19-1,.56a.85.85,0,0,0,.59.76,2.62,2.62,0,0,0,.63.14,5.77,5.77,0,0,1,.72.16C7,47.67,10,48.31,12.89,49.27c1.25.42,2.6.47,3.84.93,2.91,1,5.86,2,8.77,3.09s6.17,2.11,9.25,3.19a10.62,10.62,0,0,1,2.84,1.26q3.38,2.44,6.94,4.6c2.82,1.71,5.6,3.49,8.41,5.23.77.47,1.56.92,2.36,1.36.43.23.69,0,.68-.46a.83.83,0,0,0-.45-.66c-1.1-.79-2.23-1.55-3.39-2.24-4.54-2.73-9.1-5.45-13.51-8.4a2.12,2.12,0,0,1-.71-.59h.2a4.38,4.38,0,0,1,.54.23c5.44,3.7,11.22,6.85,16.65,10.55.09.06.17.15.3,0a7.89,7.89,0,0,1,1.68-.68c5.21-2.1,10.4-4.26,15.76-6a1.37,1.37,0,0,0,.65-.34c-1.66-.51-3.26-1-4.9-1.37-.56-.18-1.13-.34-1.69-.53a.68.68,0,0,0-.68.13A9,9,0,0,1,65,59.71a4.32,4.32,0,0,0-1.36,1.15,5.9,5.9,0,0,1-3.72,2.31c-.4,0-.73-.21-1.12-.15-.7-.27-1.36-.59-1.55-1.43a1.78,1.78,0,0,0-.21-.65c-.41-.6,0-.95.36-1.32a11.58,11.58,0,0,0,1.52-1.45H59a5.74,5.74,0,0,0,1.23-1.28c.09-.1.13-.24,0-.27s-.42-.17-.66,0a6.84,6.84,0,0,1-4.12,1,2.43,2.43,0,0,0-1.18.27,8.1,8.1,0,0,1-4.47,1.22,2.23,2.23,0,0,1-1.79-1.82,2.81,2.81,0,0,1,.1-1.65c.13-.36.51-.37.79-.52.63-.35,1.29-.68,2-1.07l-.6-.19c-6.22-1.8-12.41-3.68-18.54-5.75A.76.76,0,0,0,31.3,48a9.29,9.29,0,0,1-2.93-.13c-3.13-.2-6.27-.29-9.39-.56-1.89-.17-3.78-.34-5.67-.49a6.63,6.63,0,0,0-1.78-.08c.38.16.77.27,1.15.4C18.09,49,23.5,50.87,28.9,52.78a66.47,66.47,0,0,1,6.75,2.71c0,.08-.12.08-.2.09a10.08,10.08,0,0,0-1.43-.5A.24.24,0,0,0,33.76,55ZM80.44,43.46c.2,1.07.22,1.08,1.14.62.17,0,.19-.11.21-.23a6.35,6.35,0,0,0,2-2,2.51,2.51,0,0,1-2.16.42,1.87,1.87,0,0,1-1-1.65,3.6,3.6,0,0,0-.25,2.52C80.4,43.26,80.34,43.37,80.44,43.46ZM45.66,49.14l.1.08c.13.14.12-.12.22-.08l.12.18a2.2,2.2,0,0,0,1.45.57,2.59,2.59,0,0,1-.28-2.24c.11-.2.21-.4.33-.6a3.1,3.1,0,0,1,2.57-1.68,4.89,4.89,0,0,1,2.63.69c1,.76,1.09,1.87,1.29,3.09a19,19,0,0,0,1.26-1.7.73.73,0,0,0,.15-.79l.21,0c.28,0,.25-.26.27-.44.07-.68-.41-1-.9-1.26-.14-.14-.31,0-.47-.08A5.9,5.9,0,0,0,52,44.19a7,7,0,0,0-5.2,1.75,2.23,2.23,0,0,0-.75,1c-.19,0-.31.1-.31.3l-.1.09h0c-.83.81-.83,1.26,0,1.79Zm3,8.42h0a1.12,1.12,0,0,0,.8.8,3.09,3.09,0,0,0,1.57.06,16,16,0,0,0,3-1.12,1.3,1.3,0,0,0,.64-.44c.11-.17.22-.22.37,0a.58.58,0,0,0,.63.25A20.47,20.47,0,0,0,59,56.27a1.21,1.21,0,0,0,.59-.43c.22-.32.42-.57.57,0,0,.13.15.14.26.19a1.27,1.27,0,0,0,1.29-.26c.12,0,.32-.08.23-.24-.31-.59-.4-1.35-1.1-1.68-.52-.25-1.05-.48-1.57-.71a1.29,1.29,0,0,0-.8-.07c-1.54.25-3,1-4.54,1.07-.08-.09-.14,0-.2,0a8,8,0,0,0-1.38,0,.18.18,0,0,0-.21.11,1.31,1.31,0,0,0-.76.13c-.8.5-1.68.83-2.58,1.3A.29.29,0,0,1,49,56l-.38-.08c-.27-.06-.36,0-.3.3a3.09,3.09,0,0,0,.19,1.17C48.54,57.46,48.56,57.53,48.65,57.56ZM35,74.11h.12l0-.1c0-.13-.08-.25-.14-.37l-3.18-6.27c0-.06-.05-.16-.21-.13.75,3.91,1.23,7.87,1.76,11.81a13.84,13.84,0,0,0,0-2.32c0-.35,0-.62.51-.55.3,0,.44-.08.42-.42s0-1,0-1.44.09-.53.52-.36ZM33.66,36.53h0c.09-.18-.07-.27-.15-.38a5.48,5.48,0,0,1-.84-1.56.51.51,0,0,0-.62-.41,16.83,16.83,0,0,1-2.56,0c-1.6,0-3.2-.12-4.79-.23-1.35-.11-2.7,0-4-.12-.43,0-.87,0-1.33-.08.06.23.23.25.34.33.63.42,1.29.81,1.91,1.24a42.46,42.46,0,0,1,7.26,6.18c.15.16.27.36.57.31a29.93,29.93,0,0,1,4.43-.34c1.44,0,2.88,0,4.32,0,.28,0,.39-.09.36-.37a4.24,4.24,0,0,1,.13-1.42c.09-.35-.06-.38-.31-.45s-.38.15-.5.3a.71.71,0,0,1-1,.23,15.34,15.34,0,0,1-1.75-1,1.51,1.51,0,0,1-.84-1.55c.05-.28-.19-.43-.38-.59S33.8,36.43,33.66,36.53Zm8.54-3.08,2.16-.67a24.85,24.85,0,0,1,5.92-1.05,12.61,12.61,0,0,1,5.86.89c.33.14.44.07.6-.19a14.92,14.92,0,0,1,1.7-2.25c.37-.41,1-.81,1-1.26s-.48-1-.71-1.53-.33-.49-.8-.31c-5.28,2-10.5,4.16-15.78,6.2a1.33,1.33,0,0,0-.77.39ZM68.13,84.11s-.11,0-.12,0,0,.07.06.08c.27.29.54.58.8.88s.2.51-.16.63a5.2,5.2,0,0,1-.74.12c.34.49.65.95,1,1.4a.5.5,0,0,1,0,.71,2.66,2.66,0,0,0-.27,1.64.53.53,0,0,1-.38.8,5.56,5.56,0,0,0-1.07.52.5.5,0,0,0,.14.08,58,58,0,0,0,6.94,1.27c.21,0,.38.11.33-.24-.21-1.61-.37-3.24-.7-4.84a10.89,10.89,0,0,1-.24-1.5l0-.19c0-.06,0-.09-.07-.09ZM57.45,60.3c0,.11,0,.25.1.34.05,1.29.25,1.59,1.16,1.83a3,3,0,0,0,2.65-.29,9.45,9.45,0,0,0,2.25-2.12,2.47,2.47,0,0,1,.53-.59A11.33,11.33,0,0,0,67.46,57s.06,0,.1,0c0,.63.51.49.84.6s.7-.19.59-.6a.94.94,0,0,0-.3-.56,4.44,4.44,0,0,0-.82-1.39A2.17,2.17,0,0,0,65,54.39h0c-.23-.07-.36.11-.52.2-.68.42-1.33.92-2,1.27a7.82,7.82,0,0,0-1.53.91c-.11,0-.16.09-.18.19s-.27.28-.4.43A8.87,8.87,0,0,1,58,59.57c-.21.1-.38.26-.58.37S57.35,60.18,57.45,60.3ZM84.54,34.08a2.45,2.45,0,0,0,.78.29l.87.47a12.42,12.42,0,0,1,3,2.15.55.55,0,0,0,.57.21,53.07,53.07,0,0,1,9.94-1.51,6.78,6.78,0,0,1,3.2.67,3.75,3.75,0,0,0,1.4.38c.07.14.2.11.3.09.58-.13,1.15-.27,1.72-.43a.65.65,0,0,0,.29-.26c.57-.74,1.13-1.5,1.7-2.24,1.52-2,3-4,4.64-5.91a2.11,2.11,0,0,0,.56-.77l-1.28.41a1.76,1.76,0,0,0-1.08.64,12.92,12.92,0,0,1-.93,1.27c-1.77,2.32-3.47,4.7-5.39,6.9-.15.17-.28.33-.53.3-.06-.18,0-.3.15-.43s.48-.55.72-.83c1.59-1.88,3-3.87,4.59-5.78L111,28.14a.55.55,0,0,0-.44,0c-1.88.54-3.76,1.1-5.66,1.61-3.7,1-7.41,1.89-11.15,2.68a12.74,12.74,0,0,1-4.25.5c-.19-.13-.23-.4-.47-.48l-1.72-.61a1.59,1.59,0,0,0-.26-.14c-1.81-.67-3.59-1.41-5.43-2S78.12,28.26,76.18,28c-.74-.09-1,0-1.32.72a.35.35,0,0,0,.11.5c.36.29.7.6,1,.92a24.12,24.12,0,0,1,3.2,3.64c.19.25.33.39.67.18a2.83,2.83,0,0,1,1.29-.32A11.67,11.67,0,0,1,84.54,34.08ZM65.7,30.41l-.1,0c.22-.19.48-.39.07-.63a1,1,0,0,0-1.57.55c0,.09-.06.19-.1.28-.13.32-.24.63.33.64-.27.28-.63.41-.68.78a14.85,14.85,0,0,0-.32,2.74,8.2,8.2,0,0,0,0,2.52,5.67,5.67,0,0,1,2.5-1.53,10.47,10.47,0,0,1,3.82-.28,7.43,7.43,0,0,1,3.17,1.82c1.33,1.06,1.64,2.62,2,4.15a5.88,5.88,0,0,1,0,2.4,11.39,11.39,0,0,1-1.41,3.4,6.3,6.3,0,0,1-4,2.41,1.83,1.83,0,0,0,1.43.72c.94.26,1.92.3,2.89.47l-1.25.46a8.4,8.4,0,0,0,1.93.64c.06.08.13.11.18,0a3,3,0,0,0,.27-1.06c.09-.32,0-.45-.36-.47h0s0-.07,0-.09a17.25,17.25,0,0,0,.81-3.69A15.85,15.85,0,0,0,73.26,36a12.65,12.65,0,0,0-5.15-5.2C67.35,30.42,66.6,30,65.7,30.41Zm-48,2.77a1.79,1.79,0,0,0,1.11,1.9,1.5,1.5,0,0,1,.36.26c2.68,2.2,5.16,4.63,7.74,6.95.56.5.55.51,1.21.14s.57-.32.11-.82a52.92,52.92,0,0,0-7.52-6.5A27.52,27.52,0,0,0,17.74,33.18ZM66.87,63.62c-.2-.11-.27-.08-.35,0l-9.89,3.89a.67.67,0,0,0-.36,1c.06.13.15.14.23.09.32-.19.69-.18,1-.35,2.1-1.12,4.26-2.1,6.41-3.12C64.89,64.62,65.84,64.13,66.87,63.62ZM84.59,40.38a4.06,4.06,0,0,0,.16-1.51c0-.33-.2-.46-.52-.44a1.91,1.91,0,0,0-.54,0,1.13,1.13,0,0,1-.54.07A2,2,0,0,1,84.59,40.38Zm-17,22.79c.13.09.22,0,.29-.07s0-.06,0-.06A.21.21,0,0,0,67.63,63.17Zm.55-.17,0,0,0,0a.08.08,0,0,0,0,0ZM31.54,67s0,0,0,0,0,0,0,0h0ZM84,41.77l0,0-.07,0,0,0Z"/><path class="cls-2" d="M107.87,81.08c-.1-.32-.51-.37-.47-.68,0-.1-.09-.29.09-.27.53-.2.68-.4.76-.84.1.38,0,.84.23,1,.09.1-.09.22-.18.38A.67.67,0,0,1,107.87,81.08Z"/><path class="cls-2" d="M109.78,35c-.31.17-.33.64-.82.73a2.19,2.19,0,0,1,.65-.92Z"/><path class="cls-2" d="M108.28,74.72a.29.29,0,0,1,0-.39A2.38,2.38,0,0,0,108.28,74.72Z"/><path class="cls-2" d="M108.18,71.45c-.11-.09-.09-.19,0-.29A2.48,2.48,0,0,0,108.18,71.45Z"/><path class="cls-3" d="M33.6,82c-.07-.62-.15-1.24-.22-1.87,0-.06,0-.15,0-.19.67-.78.17-1.67.21-2.5,0-.18,0-.36,0-.55s0-.28.17-.32.26-.05.35.1.15.24.31.17.14-.24.14-.39c0-.53,0-1,0-1.58l.43.21c.25.12.4.07.45-.22.47,0,.37-.23.24-.49l-1.36-2.58c-.85-1.65-1.71-3.3-2.56-5a38.33,38.33,0,0,1-2-6,1.3,1.3,0,0,1,.34,0L36,62.38a1.15,1.15,0,0,1,.53.23l4.2,3.69q1.76,1.56,3.52,3.11l4.39,3.82,3.53,3.1,5.28,4.61c.85.74,1.69,1.47,2.52,2.22.3.27.49.25.76,0a32,32,0,0,0,2.16-2.76q5.19-7.56,10.42-15.09c.68-1,1.31-2,2.08-2.94-.09,2.38-.32,4.75-.51,7.12s-.4,4.77-.57,7.16c-.14,2.11-.36,4.21-.53,6.32a15.72,15.72,0,0,0-.06,1.68c0,.41-.1.5-.51.41-1.88-.38-3.73-.85-5.58-1.36-.14,0-.29-.11-.41,0s0,.24.06.36-.15.23,0,.35a4.63,4.63,0,0,0,1.23,1c-.19.17-.42.06-.62.09-.43.08-.52.26-.23.59s.62.85.93,1.27.1.45-.13.6c-.83.53-.83.53-.32,1.34.33.51.28.66-.26.88a6.6,6.6,0,0,1-1.08.49c-.14,0-.36,0-.35.28s.2.19.32.26l.23.1c0,.49.37.64.79.71l6.92,1.21c.14,1.23.26,2.46.41,3.68.23,1.78.24,3.58.56,5.35a5.44,5.44,0,0,1,0,1,.56.56,0,0,0,.19.53.6.6,0,0,1-.12.36c-.3.55-.59,1.1-.88,1.65a8.7,8.7,0,0,1-1.86-.64q-5.46-2.22-10.91-4.47a5.2,5.2,0,0,1-.53-.26l-.08-.05h0l-.21-.11h0a.25.25,0,0,0-.21-.1h0c-.07-.12-.2-.08-.31-.11h0c0-.09-.13-.08-.21-.1h0c0-.1-.13-.08-.2-.1h0c0-.11-.12-.1-.2-.11h0c0-.1-.13-.1-.21-.11h0a.61.61,0,0,0-.15-.13l-5.28-2.59a1.21,1.21,0,0,0-.33-.07h0c0-.11-.12-.1-.2-.11h0c0-.11-.13-.09-.21-.11h0c0-.1-.13-.09-.21-.11h0c0-.1-.13-.09-.21-.11h0c0-.1-.13-.09-.2-.11h0l-.18-.11c-1.34-.6-2.58-1.38-3.85-2.09-4-2.24-8-4.7-12.07-6.79L36.55,87c-.26-.43-.51-.87-.77-1.31l-2.13-3.54h0A.2.2,0,0,0,33.6,82Z"/><path class="cls-3" d="M104.68,59.66c0,.34-.05.68,0,1s.19.46.43.34c.88-.43,1.31,0,1.63.76a1.31,1.31,0,0,1,.15.51q0,3.74.08,7.47c-.31,1.28-.45,2.6-.66,3.9-.25,1.52-.45,3-.66,4.57-.12.79-.21,1.58-.32,2.37-1.13,1-2.37,1.9-3.56,2.84-3.65,2.86-7.24,5.8-10.8,8.77C86.43,96,82,99.87,77.62,103.76a.92.92,0,0,1-.21.13c-.35-.23-.7-.46-1-.7-.32-3.12-.63-6.25-.94-9.37a3.38,3.38,0,0,1,0-.45,1,1,0,0,0,.52-.25c2.87-2,5.73-4,8.61-5.92.34-.24.38-.46.17-.78.14-.16.64-.3,0-.51a5,5,0,0,1,0-.77c0-.28.19-.63-.22-.81,0-.4-.39-.42-.63-.58,0-.43.27-.8.33-1.22,0-.25.31-.49.06-.77.18-.23.27-.46,0-.65s-.26-.4-.16-.67A8.69,8.69,0,0,0,85,77.31c-.39.3-.78.6-1.17.88-1,.77-2.09,1.53-3.14,2.29l-3,2.08c-.13.09-.23.25-.43.22a.76.76,0,0,1,.08-.39c.51-1.34,1.13-2.63,1.76-3.92.34-.7.63-1.44.94-2.17,0-.08.13-.19,0-.25s-.18,0-.23.12a5.07,5.07,0,0,1-.34.55c-1.26,1.73-2.5,3.47-3.64,5.28a9.05,9.05,0,0,1-1.28,1.86c.11-1.43.22-2.86.32-4.3.13-1.73.27-3.45.38-5.18.24-3.46.58-6.91.66-10.38,0-.61,0-1.23,0-1.84,0-.15-.08-.34.11-.44l3.25,3,6.4,6,3,2.84c.17.16.28.17.45,0Q91,71.85,93,70.14l3-2.68,5.41-4.84Z"/><path class="cls-4" d="M104.68,59.66l-3.32,3L96,67.46l-3,2.68q-1.92,1.71-3.83,3.43c-.17.16-.28.15-.45,0l-3-2.84-6.4-6-3.25-3a56.68,56.68,0,0,0,8.36-3.61c.38-.19.78-.36,1.16-.54a2.44,2.44,0,0,0,.39,0c1-.34,2-.67,3-1,3-1.12,6-2.29,9.07-3.39s6-2.08,9-3.26a1.29,1.29,0,0,1,0,1.07l-3.08,4.57c-.73,1-1.54,1.89-2.21,2.9-.08.12-.24.25-.13.4s.3,0,.46,0l1.07-.36c.1,0,.2-.09.28,0s0,.21,0,.31a.08.08,0,0,1,0,0c-.07.23-.29.46-.1.69s.46.05.7,0S104.49,59.29,104.68,59.66Z"/><path class="cls-4" d="M75.42,62.32c-.77.93-1.4,1.95-2.08,2.94q-5.22,7.55-10.42,15.09a32,32,0,0,1-2.16,2.76c-.27.3-.46.32-.76,0-.83-.75-1.67-1.48-2.52-2.22L52.2,76.33l-3.53-3.1-4.39-3.82q-1.77-1.55-3.52-3.11l-4.2-3.69a1.15,1.15,0,0,0-.53-.23L30.1,60.86a1.3,1.3,0,0,0-.34,0c-.27-1-.59-2-.77-3a4,4,0,0,1,.49,0c2.7.6,5.4,1.22,8.12,1.79a2.12,2.12,0,0,0,1.22.15c1.34.86,2.7,1.71,4,2.68l.11.08h0c0,.1.1.12.19.12h0l.1.11.1.08a.69.69,0,0,0,.28.33c.74.62,1.49,1.25,2.24,1.86l7.94,6.35a.71.71,0,0,0,.87.12c.49-.29,1-.6,1.47-.9a.55.55,0,0,1,.18.06c.62.4.92.41,1.36-.23A3.16,3.16,0,0,1,59,69.42c2.24-1.08,4.5-2.12,6.73-3.23,2.8-1.41,5.61-2.79,8.53-4,.21-.08.4-.22.62-.3s.28-.3.48-.16S75.42,62.14,75.42,62.32Z"/><path class="cls-5" d="M35.65,55.49a66.47,66.47,0,0,0-6.75-2.71C23.5,50.87,18.09,49,12.68,47.1c-.38-.13-.77-.24-1.15-.4a6.63,6.63,0,0,1,1.78.08c1.89.15,3.78.32,5.67.49,3.12.27,6.26.36,9.39.56A9.29,9.29,0,0,0,31.3,48a.76.76,0,0,1,.43.09c6.13,2.07,12.32,4,18.54,5.75l.6.19c-.75.39-1.41.72-2,1.07-.28.15-.66.16-.79.52a2.81,2.81,0,0,0-.1,1.65,2.23,2.23,0,0,0,1.79,1.82,2,2,0,0,0,1.11.58,4.61,4.61,0,0,0,3.6-.58,2.78,2.78,0,0,1,1.18-.42,10,10,0,0,0,2.43-.33,1.62,1.62,0,0,1,.82-.13,11.58,11.58,0,0,1-1.52,1.45c-.4.37-.77.72-.36,1.32a1.78,1.78,0,0,1,.21.65c.19.84.85,1.16,1.55,1.43a2.09,2.09,0,0,0,2.35.83,6.89,6.89,0,0,0,3.69-2.51,3.36,3.36,0,0,1,1.38-1.07A25.16,25.16,0,0,0,68.8,59c1.64.36,3.24.86,4.9,1.37a1.37,1.37,0,0,1-.65.34c-5.36,1.72-10.55,3.88-15.76,6a7.89,7.89,0,0,0-1.68.68c-.13.1-.21,0-.3,0-5.43-3.7-11.21-6.85-16.65-10.55a4.38,4.38,0,0,0-.54-.23A16,16,0,0,0,35.65,55.49Z"/><path class="cls-4" d="M77.2,60.14a11.1,11.1,0,0,1,1.53-2.36q3.08-4.1,6-8.32c.11-.16.21-.34.31-.51,1-1.16,1.78-2.42,2.61-3.67l.11-.19c.06,0,.12,0,.12-.12a.1.1,0,0,0-.06,0c-.07,0-.09.08-.1.14l-.11.19c-.17,0-.22.18-.31.28a21.42,21.42,0,0,1-1.45,1.82.38.38,0,0,1,.08-.32,18.08,18.08,0,0,1,2.24-3c.76-.12,1.53-.22,2.28-.37,2-.42,4-.84,6-1.38,1.35-.22,2.64-.66,4-1q2.66-.69,5.26-1.53l3.28-1c-.16.46-.6.68-.89,1s-.93.79-1.2,1.35l0,0,.05,0a.6.6,0,0,0,.22-.09c1.37-1.07,2.81-2,4.26-3a4.35,4.35,0,0,0,1.17-.87.37.37,0,0,0,.32-.21h0a.26.26,0,0,0,.27-.1h0c.09,0,.19,0,.24-.1h0a.22.22,0,0,0,.22-.11h0c.1,0,.2,0,.25-.11h0c.2,0,.41,0,.5-.2h0c.11,0,.23,0,.3-.1h0c.09,0,.16,0,.2-.1h0a.19.19,0,0,0,.2-.1h0a.27.27,0,0,0,.24-.11,2.49,2.49,0,0,1,.37-.23c1.48-.65,2.88-1.44,4.3-2.2,1.14-.62,2.29-1.21,3.44-1.82-.2.55-.74.77-1.13,1.13-1.64,1.49-3.32,3-5,4.44-1.49,1.32-2.9,2.74-4.5,3.94-.87.66-1.58,1.51-2.48,2.13a18.32,18.32,0,0,1-3.21,2c-1.27.54-2.54,1.1-3.79,1.67q-9.51,4.34-18.69,9.34c-2.28,1.24-4.57,2.5-6.92,3.62-.17.08-.31.2-.51.17Z"/><path class="cls-5" d="M89.53,33a12.74,12.74,0,0,0,4.25-.5c3.74-.79,7.45-1.71,11.15-2.68,1.9-.51,3.78-1.07,5.66-1.61a.55.55,0,0,1,.44,0l-1.28,1.56c-1.55,1.91-3,3.9-4.59,5.78-.24.28-.47.56-.72.83s-.21.25-.15.43h0a3.75,3.75,0,0,1-1.4-.38,6.78,6.78,0,0,0-3.2-.67,53.07,53.07,0,0,0-9.94,1.51.55.55,0,0,1-.57-.21,12.42,12.42,0,0,0-3-2.15l-.87-.47Z"/><path class="cls-6" d="M106.86,41.1c.27-.56.82-.89,1.2-1.35s.73-.57.89-1h0a.18.18,0,0,0,.2-.1c.08-.07.19-.12.2-.27-1.61.58-3.22,1.13-4.84,1.61l-4.22,1.22-4.05,1-.38.07-.11,0a.15.15,0,0,0-.09,0,.31.31,0,0,0-.31.07l-.28,0-.14,0-.91.17c-1.75.33-3.48.73-5.25,1-.28,0-.57.08-.61.45a18.08,18.08,0,0,0-2.24,3,.38.38,0,0,0-.08.32h0c-.21,0-.21.15-.2.3h0c-.21,0-.21.15-.21.3l-.11.17a.21.21,0,0,0-.18.22h0l-.09.11h0c-.09,0-.11.1-.11.19h0l-.09.11,0,.17-.15.12a.13.13,0,0,0-.11.11h0c-.11,0-.12.1-.12.19h0l-.09.11h0c-.1,0-.12.1-.12.19h0l-.09.12c-1.63,2.38-3.35,4.68-5.1,7-.85,1.1-1.65,2.22-2.41,3.39-.05.09,0,.32-.25.16s-.08-.22,0-.35c1-1.68,1.94-3.37,2.93-5,1.51-2.56,3-5.13,4.59-7.65.77-1.22,1.74-2.29,2.44-3.55.06-.12.19-.19.26-.3s.32-.15.44.06a2.1,2.1,0,0,0,.13.26c.09.2.24.32.43.18s0-.3-.08-.41-.4-.38-.62-.6a13.11,13.11,0,0,1,2.81-.74c2.89-.64,5.77-1.38,8.63-2.16,2.4-.66,4.75-1.48,7.12-2.23,1.33-.42,2.56-1.12,3.89-1.42a42.75,42.75,0,0,0,5.75-2.06,71.28,71.28,0,0,0,9.6-4.34,6.51,6.51,0,0,1,.71-.33c.15-.06.31-.14.42.09s0,.27-.17.36l-.46.37a.17.17,0,0,0-.18.11h0a11.35,11.35,0,0,0-1.64.9c-2.76,1.53-5.52,3.08-8.41,4.36l-2.49,1.09s-.22,0-.11.16.09,0,.14,0v.11a4.35,4.35,0,0,1-1.17.87c-1.45,1-2.89,1.93-4.26,3a.6.6,0,0,1-.22.09Z"/><path class="cls-7" d="M75,90.4c-.14-1-.29-2.09-.43-3.13a4.93,4.93,0,0,1,0-.54c.28-.13.37-.42.48-.66a15.44,15.44,0,0,0,1.07-1.84h0c.07,0,.1,0,.11-.1h0l.11-.1C77.57,82.91,79,82,80.34,81l.35-.27c1.32-.81,2.52-1.81,3.82-2.72a.66.66,0,0,1-.1.54c-.24.52-.46,1-.72,1.57a.74.74,0,0,0,.25,1.07c.27.17.23.33.08.57a3.79,3.79,0,0,0-.51,1.12c-.13.53,0,1.06.36,1.17s.4.34.37.66a2,2,0,0,0,.09,1.3c.19.29,0,.3-.1.41C82,88,79.82,89.57,77.59,91.13a10.52,10.52,0,0,1-2.28,1.46l-.08-.4a.15.15,0,0,0,0-.2l-.08-.59a.22.22,0,0,0,0-.3l0-.39A.26.26,0,0,0,75,90.4Z"/><path class="cls-4" d="M37.92,56.58a2.12,2.12,0,0,0,.71.59c4.41,2.95,9,5.67,13.51,8.4,1.16.69,2.29,1.45,3.39,2.24a.83.83,0,0,1,.45.66c0,.49-.25.69-.68.46-.8-.44-1.59-.89-2.36-1.36-2.81-1.74-5.59-3.52-8.41-5.23q-3.57-2.16-6.94-4.6a10.62,10.62,0,0,0-2.84-1.26c-3.08-1.08-6.19-2.06-9.25-3.19s-5.86-2-8.77-3.09c-1.24-.46-2.59-.51-3.84-.93C10,48.31,7,47.67,4.2,46.61a5.77,5.77,0,0,0-.72-.16,2.62,2.62,0,0,1-.63-.14.85.85,0,0,1-.59-.76c0-.37.61-.66,1-.56,1.84.48,3.68,1,5.57,1.31l.54.08a1.78,1.78,0,0,0,.3.17l15.22,5.37c2.13.75,4.25,1.53,6.38,2.25a11.13,11.13,0,0,0,2.25.72h0a.21.21,0,0,0,.23.1h0c.06.11.16.1.26.1a10.08,10.08,0,0,1,1.43.5,21.89,21.89,0,0,0,2.29,1l.19,0Z"/><path class="cls-5" d="M33.85,41.49a29.93,29.93,0,0,0-4.43.34c-.3.05-.42-.15-.57-.31a42.46,42.46,0,0,0-7.26-6.18c-.62-.43-1.28-.82-1.91-1.24-.11-.08-.28-.1-.34-.33.46.07.9,0,1.33.08,1.34.09,2.69,0,4,.12,1.59.11,3.19.2,4.79.23a16.83,16.83,0,0,0,2.56,0,.51.51,0,0,1,.62.41,5.48,5.48,0,0,0,.84,1.56c.08.11.24.2.15.38a.74.74,0,0,1-.55-.28,7,7,0,0,1-.9-1,.54.54,0,0,0-.63-.29.58.58,0,0,0-.41.61,3.91,3.91,0,0,0,.14,1.17A8.18,8.18,0,0,0,33.48,40c.34.36.77.65.39,1.23C33.82,41.26,33.86,41.39,33.85,41.49Z"/><path class="cls-7" d="M74.47,51.93a8.4,8.4,0,0,1-1.93-.64l1.25-.46c-1-.17-2-.21-2.89-.47a9.61,9.61,0,0,1,1.42-.13.35.35,0,0,0,.41-.28,23.09,23.09,0,0,0,.7-2.72,11.39,11.39,0,0,0,1.41-3.4,5.88,5.88,0,0,0,0-2.4c-.35-1.53-.66-3.09-2-4.15a7.43,7.43,0,0,0-3.17-1.82c.19,0,.15-.1,0-.22a8.32,8.32,0,0,0-4.15-2.92c-.31-.08-.72-.3-1-.07a1.85,1.85,0,0,0-.66,1,6.05,6.05,0,0,1-.59,1.55A14.85,14.85,0,0,1,63.65,32c.05-.37.41-.5.68-.78-.57,0-.46-.32-.33-.64,0-.09.07-.19.1-.28a1,1,0,0,1,1.57-.55c.41.24.15.44-.07.63l0,.13.06-.11c.9-.44,1.65,0,2.41.39A12.65,12.65,0,0,1,73.26,36a15.85,15.85,0,0,1,2.1,10.6,17.25,17.25,0,0,1-.81,3.69s0,.06,0,.09-.1,0,0,.08l0-.07c.31,0,.45.15.36.47a3,3,0,0,1-.27,1.06ZM64.61,31c-.08,0-.16,0-.15.13a0,0,0,0,0,0,0c.11,0,.11-.08.13-.15v0Zm.89-.44a.92.92,0,0,0-.59.22A.51.51,0,0,0,65.5,30.54Z"/><path class="cls-5" d="M84.54,34.08a11.67,11.67,0,0,0-3.37-.42,2.83,2.83,0,0,0-1.29.32c-.34.21-.48.07-.67-.18A24.12,24.12,0,0,0,76,30.16c-.34-.32-.68-.63-1-.92a.35.35,0,0,1-.11-.5c.33-.76.58-.81,1.32-.72,1.94.24,3.65,1.15,5.47,1.72s3.62,1.31,5.43,2a1.59,1.59,0,0,1,.26.14c-.31.24-.63.47-.92.73A16,16,0,0,0,84.54,34.08Z"/><path class="cls-8" d="M60.91,56.77a7.82,7.82,0,0,1,1.53-.91c.71-.35,1.36-.85,2-1.27.16-.09.29-.27.52-.2.33.42.83.07,1.21.28A2,2,0,0,0,65,54.39a2.17,2.17,0,0,1,2.87.69,4.44,4.44,0,0,1,.82,1.39c-.37.05-.77.26-1.07-.19-.06-.09-.14,0-.19,0a7.78,7.78,0,0,1-1.26,1.24,3.05,3.05,0,0,1-2.18.89c-.4,0-.52.15-.58.54A3.51,3.51,0,0,1,61,62a9.09,9.09,0,0,1-2.3.5c-.91-.24-1.11-.54-1.16-1.83a9.79,9.79,0,0,1,2.4.79.33.33,0,0,0,.4-.18l.1-.11c.08,0,.1-.1.12-.18s.08-.06,0-.11l-.06.08a.18.18,0,0,0-.1.2l-.1.09H60a4.26,4.26,0,0,0-2.51-.93c-.1-.12-.28-.22,0-.36s.37-.27.58-.37a8.87,8.87,0,0,0,2.31-2.18c.13-.15.26-.29.4-.43l.79,0c.07.1.18.09.28.11l.11,0-.06-.08c-.07-.1-.19-.09-.29-.11A1.51,1.51,0,0,0,60.91,56.77Zm5.79-1.89-.06,0,0,.06,0,0Zm-4.54,2.36-.11,0,.05.1a1.18,1.18,0,0,0,.19.11l.09.1.49.6a.67.67,0,0,0-.41-.67l-.11-.09Zm-1.82,2,0-.11s0,0,0,0,0,0,.06.06c.19.4.53.73.4,1.24C61,60,60.9,59.59,60.34,59.26ZM67,55.08l0,0,0,.06h0S67,55.09,67,55.08Zm-.53-.32,0,0h0Zm-5.75,6s0,0,0,0l0,0,0,0S60.68,60.71,60.69,60.72Z"/><path class="cls-7" d="M73.93,87.13c.33,1.6.49,3.23.7,4.84.05.35-.12.26-.33.24a58,58,0,0,1-6.94-1.27.5.5,0,0,1-.14-.08,5.56,5.56,0,0,1,1.07-.52.53.53,0,0,0,.38-.8,2.66,2.66,0,0,1,.27-1.64.5.5,0,0,0,0-.71c-.33-.45-.64-.91-1-1.4a5.2,5.2,0,0,0,.74-.12c.36-.12.41-.35.16-.63s-.53-.59-.8-.88l.06-.06,5.51,1.25.07.09,0,.19c-1.33.71-2.67,1.41-4,2a5.8,5.8,0,0,0,1-.09A25.53,25.53,0,0,1,73.93,87.13Z"/><path class="cls-6" d="M42.19,33.28c5.28-2,10.5-4.19,15.78-6.2.47-.18.62-.08.8.31s.76,1.05.71,1.53-.67.85-1,1.26a14.92,14.92,0,0,0-1.7,2.25c-.16.26-.27.33-.6.19a12.61,12.61,0,0,0-5.86-.89,24.85,24.85,0,0,0-5.92,1.05l-2.16.67Z"/><path class="cls-9" d="M107,49.84c-3,1.18-6,2.16-9,3.26s-6,2.27-9.07,3.39c-1,.36-2,.69-3,1a2.44,2.44,0,0,1-.39,0c1.26-.73,2.56-1.37,3.85-2,2.39-1.18,4.77-2.4,7.18-3.53,3.45-1.62,6.92-3.18,10.38-4.76.15-.06.31-.2.46,0s0,.31,0,.47C107.38,48.42,107,49.08,107,49.84Z"/><path class="cls-8" d="M52.32,54.21a8,8,0,0,1,1.38,0c0,.09.1.1.17.11l.1.1.1.09.11.09.1.1.1.1.11.1,0,0,0,0-.07-.12-.1-.1a.47.47,0,0,1-.1-.1l-.11-.09-.1-.1-.11-.08a.34.34,0,0,1,0-.1c1.57-.09,3-.82,4.54-1.07a1.29,1.29,0,0,1,.8.07c.52.23,1,.46,1.57.71.7.33.79,1.09,1.1,1.68.09.16-.11.2-.23.24a3.78,3.78,0,0,1-1.35-.7c-.27-.2-.49-.29-.78,0a5.45,5.45,0,0,1-1.63.91,3.65,3.65,0,0,1-1.84.46c-.91-.13-1.86-.65-2.49.52,0,.07-.17.1-.24.16a4.07,4.07,0,0,1-2.84,1,5.34,5.34,0,0,1-1.86-.6h0a.19.19,0,0,0-.1-.19,3.09,3.09,0,0,1-.19-1.17c.09-.08.22-.24.29,0s.33.35.56.42a2.84,2.84,0,0,1,.91.48c0,.32.17.3.45.24a.51.51,0,0,1-.42-.27A2.92,2.92,0,0,0,49,56a.29.29,0,0,0-.27-.23c.9-.47,1.78-.8,2.58-1.3a1.31,1.31,0,0,1,.76-.13.17.17,0,0,0,.18.09c0,.05.06.09.11,0l-.08-.06Zm.31.36s-.06-.08-.11,0,0,.05.06.07l.11.09.1.1s.06.08.11,0l-.06-.07a.94.94,0,0,1-.1-.1Zm.65.64.1.1.09.11.1.09c0,.07.09.17.15.1s0-.12-.1-.14l-.1-.1-.11-.09-.1-.1-.1-.1-.1-.1-.06-.06c-.07,0,0,.07,0,.1a.94.94,0,0,1,.1.1Zm.8,0,.1.09.11.09.1.1.1.1.09.11.06.06c.06,0,0-.07,0-.1l-.11-.1-.09-.1-.1-.1-.09-.1-.1-.1-.1-.1-.11,0,.06.09Zm-2.47.18s0-.13-.06-.11l.07.1a3,3,0,0,0,.15.82A.77.77,0,0,0,51.61,55.39Zm.06.91,0,0s0,0,0,0,0,0,0,0Zm-.1.19s0,0,0,0l0,0,0,0S51.57,56.5,51.57,56.49Z"/><path class="cls-4" d="M33.85,41.49c0-.1,0-.23,0-.3.38-.58,0-.87-.39-1.23a8.18,8.18,0,0,1-2.16-3.21,3.91,3.91,0,0,1-.14-1.17.58.58,0,0,1,.41-.61.54.54,0,0,1,.63.29,7,7,0,0,0,.9,1,.74.74,0,0,0,.55.28h0c0,.1.13.11.22.11.19.16.43.31.38.59a1.51,1.51,0,0,0,.84,1.55,15.34,15.34,0,0,0,1.75,1,.71.71,0,0,0,1-.23c.12-.15.2-.4.5-.3s.4.1.31.45a4.24,4.24,0,0,0-.13,1.42c0,.28-.08.37-.36.37C36.73,41.49,35.29,41.49,33.85,41.49Z"/><path class="cls-4" d="M17.74,33.18a27.52,27.52,0,0,1,3,1.93,52.92,52.92,0,0,1,7.52,6.5c.46.5.47.49-.11.82s-.65.36-1.21-.14c-2.58-2.32-5.06-4.75-7.74-6.95a1.5,1.5,0,0,0-.36-.26A1.79,1.79,0,0,1,17.74,33.18Z"/><path class="cls-6" d="M105,59.36a1.51,1.51,0,0,0-1.19-.16c-.28.06-.34,0-.23-.26s.44-.65.18-.9-.61.07-.92.15a8,8,0,0,0-.86.31c.78-1.08,1.47-2,2.17-3a3.68,3.68,0,0,0,.31-.38l2.31-3.49c.1-.16.22-.41.31,0l-.07,2a.45.45,0,0,0,0,.5c-.14,1.25,0,2.52-.13,3.77-.21,0-.32.13-.45.25Z"/><path class="cls-10" d="M63.33,34.75a6.05,6.05,0,0,0,.59-1.55,1.85,1.85,0,0,1,.66-1c.26-.23.67,0,1,.07a8.32,8.32,0,0,1,4.15,2.92c.1.12.14.19,0,.22a10.47,10.47,0,0,0-3.82.28,5.67,5.67,0,0,0-2.5,1.53A8.2,8.2,0,0,1,63.33,34.75Z"/><path class="cls-9" d="M56.09,70.67c-.49.3-1,.61-1.47.9a.71.71,0,0,1-.87-.12L45.81,65.1c-.75-.61-1.5-1.24-2.24-1.86a.69.69,0,0,1-.28-.33A7.72,7.72,0,0,1,45.2,64c2.81,1.75,5.6,3.54,8.41,5.3.52.33,1,.64,1.56,1C55.45,70.43,55.89,70.28,56.09,70.67Z"/><path class="cls-8" d="M52.8,46.06a4.89,4.89,0,0,0-2.63-.69,3.1,3.1,0,0,0-2.57,1.68c-.12.2-.22.4-.33.6a1.35,1.35,0,0,0-1.12,1.54s0,.09,0,.13L46,49.14A4.14,4.14,0,0,1,46.07,47a2.23,2.23,0,0,1,.75-1A7,7,0,0,1,52,44.19a5.9,5.9,0,0,1,2.59.67,5.61,5.61,0,0,1,.89,1.8.73.73,0,0,1-.15.79c-.17-.33-.2-.75-.61-.91A5.65,5.65,0,0,0,52.8,46.06Z"/><path class="cls-9" d="M38.82,59.85a2.12,2.12,0,0,1-1.22-.15c-2.72-.57-5.42-1.19-8.12-1.79a4,4,0,0,0-.49,0h0l-.08-.09c-.15-.55-.3-1.11-.46-1.66,0-.13-.11-.27,0-.38s.25,0,.37,0c2.07.65,4.1,1.42,6.13,2.19.28.11.55.23.83.32A12.89,12.89,0,0,1,38.82,59.85Z"/><path class="cls-11" d="M104.29,36.74c.25,0,.38-.13.53-.3,1.92-2.2,3.62-4.58,5.39-6.9a12.92,12.92,0,0,0,.93-1.27,1.76,1.76,0,0,1,1.08-.64l1.28-.41a2.11,2.11,0,0,1-.56.77c-1.65,1.89-3.12,3.92-4.64,5.91-.57.74-1.13,1.5-1.7,2.24a.65.65,0,0,1-.29.26c-.57.16-1.14.3-1.72.43-.1,0-.23.05-.3-.09Z"/><path class="cls-12" d="M35,74.11,34.69,74c-.43-.17-.53-.09-.52.36s0,1,0,1.44-.12.46-.42.42c-.46-.07-.51.2-.51.55a13.84,13.84,0,0,1,0,2.32c-.53-3.94-1-7.9-1.76-11.81.16,0,.17.07.21.13l3.18,6.27c.06.12.09.24.14.37Z"/><path class="cls-4" d="M68.8,59a25.16,25.16,0,0,1-2.63,1.23,3.36,3.36,0,0,0-1.38,1.07,6.89,6.89,0,0,1-3.69,2.51A2.09,2.09,0,0,1,58.75,63c.39-.06.72.19,1.12.15a5.9,5.9,0,0,0,3.72-2.31A4.32,4.32,0,0,1,65,59.71a9,9,0,0,0,1.48-1.07.68.68,0,0,1,.68-.13C67.67,58.7,68.24,58.86,68.8,59Z"/><path class="cls-4" d="M58.87,58.17a1.62,1.62,0,0,0-.82.13,10,10,0,0,1-2.43.33,2.78,2.78,0,0,0-1.18.42,4.61,4.61,0,0,1-3.6.58,2,2,0,0,1-1.11-.58,8.1,8.1,0,0,0,4.47-1.22,2.43,2.43,0,0,1,1.18-.27,6.84,6.84,0,0,0,4.12-1c.24-.15.45,0,.66,0s.12.17,0,.27A5.74,5.74,0,0,1,59,58.16c0-.07-.08-.08-.1,0Z"/><path class="cls-4" d="M74.51,83.86A9.05,9.05,0,0,0,75.79,82c1.14-1.81,2.38-3.55,3.64-5.28a5.07,5.07,0,0,0,.34-.55c0-.09.12-.18.23-.12s0,.17,0,.25c-.31.73-.6,1.47-.94,2.17-.63,1.29-1.25,2.58-1.76,3.92a.76.76,0,0,0-.08.39h0l-.1.14a17.09,17.09,0,0,1-2.62,1.94A4,4,0,0,1,74.51,83.86Z"/><path class="cls-11" d="M105.3,80.61c.11-.79.2-1.58.32-2.37.21-1.53.41-3,.66-4.57.21-1.3.35-2.62.66-3.9.13,1.89.12,3.79.14,5.68,0,1.22,0,2.43,0,3.64a.6.6,0,0,1-.27.45C106.29,79.91,105.79,80.26,105.3,80.61Z"/><path class="cls-13" d="M75.31,92.59a10.52,10.52,0,0,0,2.28-1.46C79.82,89.57,82,88,84.23,86.39c.15-.11.29-.12.1-.41a2,2,0,0,1-.09-1.3c0-.32,0-.54-.37-.66s-.49-.64-.36-1.17A3.79,3.79,0,0,1,84,81.73c.15-.24.19-.4-.08-.57a.74.74,0,0,1-.25-1.07c.26-.52.48-1,.72-1.57a.66.66,0,0,0,.1-.54c-1.3.91-2.5,1.91-3.82,2.72l0-.22c1-.76,2.1-1.52,3.14-2.29.39-.28.78-.58,1.17-.88a8.69,8.69,0,0,1-.83,3.13c-.1.27-.12.5.16.67s.23.42,0,.65a2.55,2.55,0,0,0-.52,1,.88.88,0,0,0,.13,1c.24.16.61.18.63.58a3,3,0,0,0-.12,1.34c0,.18.12.25.29.24.6.21.1.35,0,.51s-.17.09-.25.15l-8.46,6a.9.9,0,0,1-.68.22C75.23,92.72,75.21,92.66,75.31,92.59Zm9.28-14.68s0,0,0,0a.14.14,0,0,0,0,.06s0,0,0,0S84.6,77.93,84.59,77.91Z"/><path class="cls-11" d="M66.87,63.62c-1,.51-2,1-2.94,1.46-2.15,1-4.31,2-6.41,3.12-.33.17-.7.16-1,.35-.08,0-.17,0-.23-.09a.67.67,0,0,1,.36-1l9.89-3.89C66.6,63.54,66.67,63.51,66.87,63.62Z"/><path class="cls-5" d="M48.65,57.56a5.34,5.34,0,0,0,1.86.6,4.07,4.07,0,0,0,2.84-1c.07-.06.2-.09.24-.16.63-1.17,1.58-.65,2.49-.52A3.65,3.65,0,0,0,57.92,56a5.45,5.45,0,0,0,1.63-.91c.29-.25.51-.16.78,0a3.78,3.78,0,0,0,1.35.7,1.27,1.27,0,0,1-1.29.26c-.11,0-.23-.06-.26-.19-.15-.62-.35-.37-.57,0a1.21,1.21,0,0,1-.59.43,20.47,20.47,0,0,1-3.26.82.58.58,0,0,1-.63-.25c-.15-.2-.26-.15-.37,0a1.3,1.3,0,0,1-.64.44,16,16,0,0,1-3,1.12,3.09,3.09,0,0,1-1.57-.06A1.12,1.12,0,0,1,48.65,57.56Z"/><path class="cls-6" d="M58.71,62.47A9.09,9.09,0,0,0,61,62a3.51,3.51,0,0,0,2.4-3c.06-.39.18-.53.58-.54a3.05,3.05,0,0,0,2.18-.89,7.78,7.78,0,0,0,1.26-1.24c0-.08.13-.13.19,0,.3.45.7.24,1.07.19A.94.94,0,0,1,69,57c.11.41-.18.74-.59.6s-.87,0-.84-.6c0,0-.09,0-.1,0a11.33,11.33,0,0,1-3.32,2.43,2.47,2.47,0,0,0-.53.59,9.45,9.45,0,0,1-2.25,2.12A3,3,0,0,1,58.71,62.47Z"/><path class="cls-4" d="M84.54,34.08a16,16,0,0,1,1.88-1.49c.29-.26.61-.49.92-.73l1.72.61c.24.08.28.35.47.48l-4.21,1.42A2.45,2.45,0,0,1,84.54,34.08Z"/><path class="cls-4" d="M75.33,92.78a.9.9,0,0,0,.68-.22l8.46-6c.08-.06.17-.1.25-.15.21.32.17.54-.17.78-2.88,2-5.74,3.94-8.61,5.92a1,1,0,0,1-.52.25A1.18,1.18,0,0,1,75.33,92.78Z"/><path class="cls-11" d="M33.65,82.17l2.13,3.54c.26.44.51.88.77,1.31l-2.22-.82a.34.34,0,0,1-.25-.28,8.26,8.26,0,0,1-.41-1.82A12.45,12.45,0,0,0,33.65,82.17Z"/><path class="cls-10" d="M73.43,47.23a23.09,23.09,0,0,1-.7,2.72.35.35,0,0,1-.41.28,9.61,9.61,0,0,0-1.42.13,1.83,1.83,0,0,1-1.43-.72A6.3,6.3,0,0,0,73.43,47.23Z"/><path class="cls-14" d="M33.52,54.89a11.13,11.13,0,0,1-2.25-.72c-2.13-.72-4.25-1.5-6.38-2.25L9.67,46.55a1.78,1.78,0,0,1-.3-.17,11,11,0,0,1,2.64.8Q21.67,50.57,31.33,54A12.57,12.57,0,0,1,33.52,54.89Z"/><path class="cls-8" d="M105,59.36l1.41-1.24c.13-.12.24-.29.45-.25v3.35c-.31-.91-.95-.69-1.57-.5-.24.07-.28,0-.31-.23C104.88,60.11,105.05,59.74,105,59.36Z"/><path class="cls-11" d="M74.72,93.18,67.8,92c-.42-.07-.75-.22-.79-.71,1.5.32,3,.7,4.52.94a12.12,12.12,0,0,0,2.82.38C74.86,92.55,74.71,92.91,74.72,93.18Z"/><path class="cls-10" d="M52.8,46.06a5.65,5.65,0,0,1,1.94.48c.41.16.44.58.61.91a19,19,0,0,1-1.26,1.7C53.89,47.93,53.75,46.82,52.8,46.06Z"/><path class="cls-13" d="M112.52,37s-.12,0-.14,0,.07-.14.11-.16L115,35.77c2.89-1.28,5.65-2.83,8.41-4.36a11.35,11.35,0,0,1,1.64-.9,7.33,7.33,0,0,1-1.28,1.08c0-.07-.08-.1-.12,0h0a.19.19,0,0,0-.2.1h0c-1.15.61-2.3,1.2-3.44,1.82-1.42.76-2.82,1.55-4.3,2.2a2.49,2.49,0,0,0-.37.23c-.09,0-.19,0-.24.11h0c-.09,0-.17,0-.2.1h0c-.09,0-.17,0-.2.1h0a.24.24,0,0,0-.3.1h0a.64.64,0,0,0-.5.2h0a.31.31,0,0,0-.25.11h0c-.09,0-.17,0-.22.11h0a.28.28,0,0,0-.24.1h0a.33.33,0,0,0-.27.1h0A.38.38,0,0,0,112.52,37Z"/><path class="cls-3" d="M73.93,87.13a25.53,25.53,0,0,0-3.26.44,5.8,5.8,0,0,1-1,.09c1.38-.62,2.72-1.32,4-2A10.89,10.89,0,0,0,73.93,87.13Z"/><path class="cls-10" d="M81.68,42.29a2.51,2.51,0,0,0,2.16-.42,6.35,6.35,0,0,1-2,2c-.28-.08-.58-.05-.82-.25a5.09,5.09,0,0,1,.22-.54C81.33,42.79,81.3,42.41,81.68,42.29Z"/><path class="cls-11" d="M76.37,103.19c.34.24.69.47,1,.7l-2,1.88c-.18.17-.33.09-.48,0,.29-.55.58-1.1.88-1.65a.6.6,0,0,0,.12-.36C76.28,103.73,76.32,103.46,76.37,103.19Z"/><path class="cls-12" d="M81.68,42.29c-.38.12-.35.5-.49.77a5.09,5.09,0,0,0-.22.54l-.19,0h0c0-.09-.09-.16-.2-.1h0c.06-.18-.1-.23-.18-.33a3.6,3.6,0,0,1,.25-2.52A1.87,1.87,0,0,0,81.68,42.29Z"/><path class="cls-10" d="M46.1,49.32s.06-.09,0-.13a1.35,1.35,0,0,1,1.12-1.54,2.59,2.59,0,0,0,.28,2.24A2.2,2.2,0,0,1,46.1,49.32Z"/><path class="cls-13" d="M107,51.63c-.09-.42-.21-.17-.31,0l-2.31,3.49a3.68,3.68,0,0,1-.31.38h-.23L107,50.91C107.09,51.14,107.33,51.35,107,51.63Z"/><path class="cls-6" d="M76.09,84.23A15.44,15.44,0,0,1,75,86.07c-.11.24-.2.53-.48.66A1.24,1.24,0,0,1,75,85,8,8,0,0,1,76.09,84.23Z"/><path class="cls-12" d="M84.59,40.38a2,2,0,0,0-1.44-1.84,1.13,1.13,0,0,0,.54-.07,1.91,1.91,0,0,1,.54,0c.32,0,.47.11.52.44A4.06,4.06,0,0,1,84.59,40.38Z"/><path class="cls-12" d="M54.29,96.85a1.21,1.21,0,0,1,.33.07l5.28,2.59a.61.61,0,0,1,.15.13c-.11,0-.19,0-.28-.07q-2.7-1.23-5.33-2.6A.88.88,0,0,1,54.29,96.85Z"/><path class="cls-13" d="M84.82,48.92l0-.17.09-.11h0a.18.18,0,0,0,.11-.19h0l.09-.11h0a.23.23,0,0,0,.18-.22l.11-.17a.3.3,0,0,0,.21-.3h0a.28.28,0,0,0,.2-.3h0a21.42,21.42,0,0,0,1.45-1.82c.09-.1.14-.25.31-.28l0,0C86.81,46.53,86,47.79,85,49Z"/><path class="cls-15" d="M57.45,60.3a4.26,4.26,0,0,1,2.51.93v.2a9.79,9.79,0,0,0-2.4-.79C57.43,60.55,57.48,60.41,57.45,60.3Z"/><path class="cls-12" d="M45.66,49.14c-.82-.53-.82-1,0-1.79A10.7,10.7,0,0,0,45.66,49.14Z"/><path class="cls-15" d="M50.12,57.08a2.84,2.84,0,0,0-.91-.48c-.23-.07-.46-.13-.56-.42s-.2-.06-.29,0c-.06-.26,0-.36.3-.3L49,56a2.92,2.92,0,0,1,1.11,1.07Z"/><path class="cls-12" d="M55.08,44.94c.49.29,1,.58.9,1.26,0,.18,0,.42-.27.44A9.38,9.38,0,0,0,55.08,44.94Z"/><path class="cls-13" d="M45.66,49.14a10.7,10.7,0,0,1,0-1.79h0c.07,0,.08,0,.1-.09s.12-.29.31-.3A4.14,4.14,0,0,0,46,49.14c-.1,0-.09.22-.22.08s0-.11-.1-.08Z"/><path class="cls-13" d="M37.74,56.56a21.89,21.89,0,0,1-2.29-1c.08,0,.16,0,.2-.09a16,16,0,0,1,2.47,1.09h-.19C37.88,56.5,37.82,56.47,37.74,56.56Z"/><path class="cls-4" d="M68.52,85.36a4.63,4.63,0,0,1-1.23-1c-.13-.12,0-.24,0-.35a6.2,6.2,0,0,1,1.26,1.14C68.65,85.26,68.68,85.34,68.52,85.36Z"/><path class="cls-13" d="M55.08,44.94a9.38,9.38,0,0,1,.63,1.7l-.21,0a5.61,5.61,0,0,0-.89-1.8C54.77,44.91,54.94,44.8,55.08,44.94Z"/><path class="cls-12" d="M81.58,44.08c-.92.46-.94.45-1.14-.62l.14,0h0c0,.1.08.17.2.1h0C80.9,44,81.39,43.79,81.58,44.08Z"/><path class="cls-11" d="M35.45,74.83c-.05.29-.2.34-.45.22l-.43-.21v-.47A2.74,2.74,0,0,1,35.45,74.83Z"/><path class="cls-15" d="M81.58,44.08c-.19-.29-.68-.1-.8-.5l.19,0c.24.2.54.17.82.25C81.77,44,81.75,44.09,81.58,44.08Z"/><path class="cls-16" d="M42.19,33.28v.17l-.78.22A1.33,1.33,0,0,1,42.19,33.28Z"/><path class="cls-16" d="M60.91,56.77a1.51,1.51,0,0,1,.65.18l0,0-.79,0C60.75,56.86,60.8,56.78,60.91,56.77Z"/><path class="cls-13" d="M107,54.1a.45.45,0,0,1,0-.5A.33.33,0,0,1,107,54.1Z"/><path class="cls-15" d="M67.63,63.17a.21.21,0,0,1,.24-.13s0,.05,0,.06S67.76,63.26,67.63,63.17Z"/><path class="cls-13" d="M75,90.4a.26.26,0,0,1,0,.31C74.9,90.63,74.88,90.53,75,90.4Z"/><path class="cls-13" d="M75.11,91.1a.22.22,0,0,1,0,.3C75,91.31,75,91.21,75.11,91.1Z"/><path class="cls-15" d="M80.58,43.49l-.14,0c-.1-.09,0-.2,0-.3C80.48,43.26,80.64,43.31,80.58,43.49Z"/><path class="cls-16" d="M52.32,54.21v.17l0,0a.17.17,0,0,1-.18-.09A.18.18,0,0,1,52.32,54.21Z"/><path class="cls-13" d="M75.22,92a.15.15,0,0,1,0,.2C75.14,92.13,75.12,92.06,75.22,92Z"/><path class="cls-16" d="M53.9,54.19a.34.34,0,0,0,0,.1l0,0c-.07,0-.14,0-.17-.11S53.82,54.1,53.9,54.19Z"/><path class="cls-12" d="M60.83,100c.11,0,.24,0,.31.11A.34.34,0,0,1,60.83,100Z"/><path class="cls-14" d="M33.77,55a.21.21,0,0,1-.23-.1C33.63,54.88,33.72,54.88,33.77,55Z"/><path class="cls-14" d="M34,55.08c-.1,0-.2,0-.26-.1A.24.24,0,0,1,34,55.08Z"/><path class="cls-5" d="M48.55,57.37a.19.19,0,0,1,.1.19C48.56,57.53,48.54,57.46,48.55,57.37Z"/><path class="cls-9" d="M43.09,62.73c-.09,0-.16,0-.19-.12A.21.21,0,0,1,43.09,62.73Z"/><path class="cls-15" d="M68.18,63h0a.08.08,0,0,1,0,0l0,0Z"/><path class="cls-15" d="M67.29,63.29s.11-.1.14,0-.05.07-.1.07S67.29,63.32,67.29,63.29Z"/><path class="cls-11" d="M67.08,63.41c0-.1.13-.09.21-.12s0,0,0,0a.25.25,0,0,1-.23.11Z"/><path class="cls-11" d="M67.1,63.43a.12.12,0,0,1-.15.07s0,0,0,0l.16-.06Z"/><path class="cls-12" d="M31.54,67v0h0s0,0,0,0S31.53,67,31.54,67Z"/><path class="cls-12" d="M65.7,30.41l-.06.11,0-.13Z"/><path class="cls-13" d="M125,30.5a.17.17,0,0,1,.18-.11A.2.2,0,0,1,125,30.5Z"/><path class="cls-13" d="M123.43,31.68a.19.19,0,0,1,.2-.1C123.61,31.69,123.54,31.72,123.43,31.68Z"/><path class="cls-11" d="M33.6,82a.2.2,0,0,1,0,.21A.17.17,0,0,1,33.6,82Z"/><path class="cls-5" d="M33.88,36.64c-.09,0-.18,0-.22-.11C33.8,36.43,33.82,36.57,33.88,36.64Z"/><path class="cls-10" d="M84,41.77l-.08,0,0,0,.07,0Z"/><path class="cls-12" d="M53.12,96.25l.18.11Z"/><path class="cls-12" d="M53.3,96.35c.07,0,.16,0,.2.11Z"/><path class="cls-12" d="M53.49,96.45c.08,0,.18,0,.21.11Z"/><path class="cls-12" d="M53.69,96.55c.08,0,.17,0,.21.11A.23.23,0,0,1,53.69,96.55Z"/><path class="cls-12" d="M53.89,96.65c.08,0,.17,0,.21.11A.23.23,0,0,1,53.89,96.65Z"/><path class="cls-12" d="M54.09,96.75c.08,0,.17,0,.2.11A.2.2,0,0,1,54.09,96.75Z"/><path class="cls-4" d="M84.45,49.34c0-.09,0-.17.12-.19A.18.18,0,0,1,84.45,49.34Z"/><path class="cls-12" d="M60,99.63c.08,0,.17,0,.21.11S60.07,99.74,60,99.63Z"/><path class="cls-12" d="M60.24,99.73c.08,0,.17,0,.2.11S60.27,99.83,60.24,99.73Z"/><path class="cls-12" d="M60.44,99.83c.07,0,.17,0,.2.1A.18.18,0,0,1,60.44,99.83Z"/><path class="cls-12" d="M60.63,99.93c.08,0,.17,0,.21.1A.28.28,0,0,1,60.63,99.93Z"/><path class="cls-4" d="M84.25,49.63c0-.09,0-.16.12-.19A.2.2,0,0,1,84.25,49.63Z"/><path class="cls-12" d="M61.13,100.13a.25.25,0,0,1,.21.1A.18.18,0,0,1,61.13,100.13Z"/><path class="cls-12" d="M61.33,100.22l.21.11A.2.2,0,0,1,61.33,100.22Z"/><path class="cls-12" d="M74.47,51.93h.18C74.6,52,74.53,52,74.47,51.93Z"/><path class="cls-4" d="M84.16,49.75l.09-.12Z"/><path class="cls-4" d="M84.36,49.45l.09-.11Z"/><path class="cls-9" d="M42.9,62.61l-.11-.08Z"/><path class="cls-12" d="M45.66,49.14c.07,0,.08,0,.1.08Z"/><path class="cls-4" d="M84.56,49.15a.13.13,0,0,1,.11-.11Z"/><path class="cls-12" d="M45.76,47.26c0,.05,0,.11-.1.09Z"/><path class="cls-12" d="M35.07,74l0,.1H35Z"/><path class="cls-13" d="M123.63,31.58c0-.09.08-.06.12,0Z"/><path class="cls-3" d="M77.11,82.91l.1-.14C77.23,82.85,77.17,82.88,77.11,82.91Z"/><path class="cls-7" d="M68.07,84.16s-.1,0-.06-.08.08,0,.12,0Z"/><path class="cls-9" d="M43.19,62.83l-.1-.11Z"/><path class="cls-6" d="M76.2,84.13c0,.07,0,.1-.11.1Z"/><path class="cls-3" d="M73.71,85.44l-.07-.09C73.7,85.35,73.73,85.38,73.71,85.44Z"/><path class="cls-4" d="M28.92,57.78l.08.09Z"/><path class="cls-5" d="M58.86,58.17c0-.09.06-.08.1,0Z"/><path class="cls-4" d="M77.22,60.16l-.06,0,0-.06Z"/><path class="cls-12" d="M61.53,100.32l.08.05Z"/><path class="cls-6" d="M76.31,84l-.11.1Z"/><path class="cls-11" d="M84,83.75a.88.88,0,0,1-.13-1,2.55,2.55,0,0,1,.52-1c.25.28,0,.52-.06.77C84.23,83,84,83.32,84,83.75Z"/><path class="cls-11" d="M84.76,85.91c-.17,0-.29-.06-.29-.24a3,3,0,0,1,.12-1.34c.41.18.25.53.22.81A5,5,0,0,0,84.76,85.91Z"/><path class="cls-2" d="M88.16,44c0-.37.33-.42.61-.45,1.77-.22,3.5-.62,5.25-1l.91-.17.14,0,.28,0a.3.3,0,0,0,.31-.07.15.15,0,0,1,.09,0l.11,0,.38-.07.21.11c-2,.54-4,1-6,1.38C89.69,43.82,88.92,43.92,88.16,44Z"/><path class="cls-15" d="M100.29,41.18,104.51,40c1.62-.48,3.23-1,4.84-1.61,0,.15-.12.2-.2.27a.19.19,0,0,0-.2.1h0l-3.28,1q-2.61.84-5.26,1.53Z"/><path class="cls-13" d="M100.29,41.18l.12.11c-1.32.34-2.61.78-4,1l-.21-.11Z"/><path class="cls-4" d="M113.9,36.54a.64.64,0,0,1,.5-.2C114.31,36.58,114.1,36.54,113.9,36.54Z"/><path class="cls-4" d="M112.52,37a.38.38,0,0,1,.32-.1.37.37,0,0,1-.32.21Z"/><path class="cls-13" d="M87.71,45.06c0-.06,0-.13.1-.14a.1.1,0,0,1,.06,0c0,.08-.06.11-.12.12Z"/><path class="cls-4" d="M114.4,36.34a.24.24,0,0,1,.3-.1C114.63,36.37,114.51,36.34,114.4,36.34Z"/><path class="cls-4" d="M115.09,36c0-.11.15-.11.24-.11A.27.27,0,0,1,115.09,36Z"/><path class="cls-4" d="M114.9,36.14c0-.11.11-.11.2-.1A.19.19,0,0,1,114.9,36.14Z"/><path class="cls-4" d="M114.7,36.24c0-.11.11-.12.2-.1S114.79,36.24,114.7,36.24Z"/><path class="cls-4" d="M113.66,36.64a.31.31,0,0,1,.25-.11C113.86,36.64,113.76,36.64,113.66,36.64Z"/><path class="cls-4" d="M113.41,36.74c0-.1.13-.1.22-.11A.22.22,0,0,1,113.41,36.74Z"/><path class="cls-4" d="M113.17,36.83a.28.28,0,0,1,.24-.1C113.36,36.84,113.26,36.83,113.17,36.83Z"/><path class="cls-4" d="M112.87,36.93a.33.33,0,0,1,.27-.1A.26.26,0,0,1,112.87,36.93Z"/><path class="cls-13" d="M87.75,45.09l-.11.19,0,0a1.18,1.18,0,0,1,.11-.19Z"/><path class="cls-6" d="M106.87,41.1l-.05,0,0,0Z"/><path class="cls-4" d="M85.84,47.35a.28.28,0,0,1-.2.3C85.63,47.5,85.63,47.36,85.84,47.35Z"/><path class="cls-4" d="M85.64,47.65a.3.3,0,0,1-.21.3C85.43,47.8,85.43,47.65,85.64,47.65Z"/><path class="cls-13" d="M95.66,42.31a.3.3,0,0,1-.31.07A.31.31,0,0,1,95.66,42.31Z"/><path class="cls-4" d="M85.32,48.12a.23.23,0,0,1-.18.22A.21.21,0,0,1,85.32,48.12Z"/><path class="cls-15" d="M109,38.72a.19.19,0,0,1,.2-.1A.18.18,0,0,1,109,38.72Z"/><path class="cls-4" d="M85.05,48.45a.18.18,0,0,1-.11.19C84.94,48.55,85,48.48,85.05,48.45Z"/><path class="cls-4" d="M84.94,48.64l-.09.11Z"/><path class="cls-4" d="M85.14,48.34l-.09.11Z"/><path class="cls-13" d="M95.07,42.43l-.14,0Z"/><path class="cls-13" d="M95.86,42.25l-.11,0Z"/><path class="cls-2" d="M37.74,56.56c.08-.09.14-.06.19,0Z"/><path class="cls-12" d="M65.5,30.54a.51.51,0,0,1-.59.22A.92.92,0,0,1,65.5,30.54Z"/><path class="cls-12" d="M64.62,31c0,.07,0,.16-.13.15a0,0,0,0,1,0,0c0-.11.07-.12.15-.13Z"/><path class="cls-12" d="M74.56,50.39l0,.07c-.07-.05,0-.05,0-.08Z"/><path class="cls-12" d="M64.61,31l0,0v0Z"/><path class="cls-16" d="M60.34,59.26c.56.33.69.7.41,1.23.13-.51-.21-.84-.4-1.24Z"/><path class="cls-6" d="M65,54.39a2,2,0,0,1,1.21.28c-.38-.21-.88.14-1.21-.28Z"/><path class="cls-16" d="M62.46,57.44a.67.67,0,0,1,.41.67l-.49-.6Z"/><path class="cls-16" d="M60,61.43v-.2h.37l0,0A.33.33,0,0,1,60,61.43Z"/><path class="cls-16" d="M61.8,57.1c-.1,0-.21,0-.28-.11l0,0c.1,0,.22,0,.29.11Z"/><path class="cls-6" d="M67,55.08s0,0,0,0h0l0-.06Z"/><path class="cls-16" d="M62.16,57.24l.19.11-.06.06-.19-.11Z"/><path class="cls-16" d="M60.35,59.25s-.05,0-.06-.06,0,0,0,0l0,.11Z"/><path class="cls-16" d="M60.43,61.13a.18.18,0,0,1,.1-.2l0,0c0,.08,0,.15-.12.18Z"/><path class="cls-16" d="M60.53,60.93l.06-.08c.06,0,0,.08,0,.11Z"/><path class="cls-16" d="M60.45,61.14l-.1.11,0,0,.1-.09Z"/><path class="cls-6" d="M66.7,54.88l0,.06,0,0Z"/><path class="cls-6" d="M66.69,54.9l0-.06.06,0Z"/><polygon class="cls-6" points="66.44 54.76 66.43 54.73 66.46 54.74 66.44 54.76"/><path class="cls-16" d="M61.85,57.06l.06.08-.11,0Z"/><path class="cls-16" d="M62.1,57.3l-.05-.1.11,0Z"/><path class="cls-16" d="M62.35,57.35l.11.09-.08.07-.09-.1Z"/><path class="cls-16" d="M60.69,60.72s0,0,0,0l0,0,0,0S60.7,60.71,60.69,60.72Z"/><path class="cls-16" d="M51.61,55.39a.77.77,0,0,1,.16.81,3,3,0,0,1-.15-.82Z"/><path class="cls-15" d="M50.15,57.05a.51.51,0,0,0,.42.27c-.28.06-.48.08-.45-.24Z"/><path class="cls-16" d="M53.62,55.47c.07,0,.17.06.1.14s-.12,0-.15-.1Z"/><path class="cls-16" d="M51.62,55.38l-.07-.1c.11,0,0,.07.06.11Z"/><path class="cls-16" d="M53.41,55.28l.11.09-.05.05-.09-.11Z"/><path class="cls-16" d="M54.29,55.39l-.11-.09,0,0,.09.11Z"/><path class="cls-16" d="M54,55.11,53.92,55l.11,0Z"/><path class="cls-16" d="M53.57,55.51l-.1-.09.05-.05.1.1Z"/><path class="cls-16" d="M54.32,55.36l.1.1,0,0-.1-.1Z"/><path class="cls-16" d="M53.11,55l.1.1,0,0-.1-.1Z"/><path class="cls-16" d="M54.49,55.59l-.1-.1,0,0,.09.1Z"/><path class="cls-16" d="M54.58,55.7l-.09-.11,0,0,.11.1Z"/><path class="cls-16" d="M54.5,54.88l0,0,0,0Z"/><path class="cls-16" d="M54.62,55.66s.08.05,0,.1l-.06-.06Z"/><path class="cls-16" d="M53.07,55s-.09-.05,0-.1l.06.06Z"/><path class="cls-16" d="M51.67,56.3l0,0s0,0,0,0,0,0,0,0Z"/><path class="cls-16" d="M54,55.06l.1.1-.05.05-.1-.1Z"/><path class="cls-16" d="M51.57,56.49s0,0,0,0l0,0,0,0S51.56,56.5,51.57,56.49Z"/><path class="cls-16" d="M54.43,54.76l.07.12v0l-.11-.1Z"/><path class="cls-16" d="M52.84,54.76l.06.07c0,.06-.08,0-.11,0Z"/><path class="cls-16" d="M54.38,54.8l-.1-.1,0,0,.1.1Z"/><path class="cls-16" d="M53.28,55.21l-.11-.09,0,0,.1.1Z"/><path class="cls-16" d="M53.31,55.18l.1.1,0,0-.1-.1Z"/><path class="cls-16" d="M52.74,54.66a.94.94,0,0,0,.1.1l-.05.05-.1-.1Z"/><path class="cls-16" d="M54.28,54.7l-.1-.1,0,0a.47.47,0,0,0,.1.1Z"/><path class="cls-16" d="M52.69,54.71l-.11-.09.05,0,.11.09Z"/><path class="cls-16" d="M54.18,55.3l-.1-.09.05-.05a.94.94,0,0,1,.1.1Z"/><path class="cls-16" d="M54.12,54.47l.11.09,0,0-.1-.09Z"/><path class="cls-16" d="M52.58,54.62s-.06-.06-.06-.07.08,0,.11,0Z"/><path class="cls-16" d="M54,54.37a.94.94,0,0,0,.1.1l0,0L54,54.42Z"/><path class="cls-16" d="M52.32,54.38l.08.06c0,.06-.08,0-.11,0Z"/><path class="cls-16" d="M54,54.42l-.1-.1,0,0,.11.08Z"/><path class="cls-7" d="M84.59,77.91s0,0,0,.06,0,0,0,0a.14.14,0,0,1,0-.06S84.58,77.92,84.59,77.91Z"/><path class="cls-15" d="M80.78,43.58c-.12.07-.17,0-.2-.1S80.75,43.49,80.78,43.58Z"/></g></svg>