<svg id="Layer_1" data-name="Layer 1" xmlns="http://www.w3.org/2000/svg" viewBox="0 0 326.09 212.13"><defs><style>.cls-1{fill:#292946;}.cls-2{fill:#c59fa6;}.cls-3{fill:#8a6c9a;}.cls-4{fill:#c49fa5;}.cls-5{fill:#c29ca4;}.cls-6{fill:#f3e4cf;}.cls-7{fill:#f0e2cd;}.cls-8{fill:#4a4d7f;}.cls-9{fill:#f4f2ec;}.cls-10{fill:#876a97;}.cls-11{fill:#eddfcb;}.cls-12{fill:#4b415e;}.cls-13{fill:#b08e9b;}.cls-14{fill:#5b4d69;}.cls-15{fill:#8e8589;}</style></defs><path class="cls-1" d="M282,96.72c4-1.46,7.93-2.92,11.83-4.58q11.55-5,23.16-9.79c1.71-.72,3.49-1.29,5.24-1.95a6.24,6.24,0,0,0,2.16-1,1.1,1.1,0,0,1,1.82.37c.56.93,1,1.94,1.62,2.83.33.45-.29.83-.61,1.11-2.17,1.91-4.37,3.77-6.54,5.67Q306.5,101.76,293,114.86c-.12.12-.22.25-.37.43a39.08,39.08,0,0,1,7.91,5.94c4.66,4.63,6.24,10.3,5.93,16.7-.19,3.86-1.24,7.61-1.5,11.45a32.88,32.88,0,0,0,5.69,21.41,14.16,14.16,0,0,0,4.86,4.05c.4.23.83.43,1.22.68a2.74,2.74,0,0,1,1.2,3.42,2.89,2.89,0,0,1-3.25,1.67,66.63,66.63,0,0,1-8.61-2.6,28.78,28.78,0,0,1-6.81-3.24c-.4-.28-.65-.13-1,.13-3.33,2.44-4.41,2.08-6.85-1.39A21.28,21.28,0,0,1,289,169.1c-.63-1.57-1.07-3.07.67-4.3a.94.94,0,0,0,.13-1.36c-.52-.87-1-1.76-1.48-2.65-.6-1.14-.89-2.45-2.67-2.5a2.72,2.72,0,0,1-2.11-1.82,26.51,26.51,0,0,1-2.2-5.92c-.26-1.33-.3-2.53,1-3.4.21-.14.44-.35.39-.62-.25-1.37-.52-2.74-.79-4.1,0-.2-.22-.24-.4-.23-1.35.09-2.42-.61-3.66-1.41-1,16.41-.37,32.64,0,48.86-.16.27-.21.52.06.75q.08,3.71.17,7.41a.76.76,0,0,0,.08,1c0,3.91-.05,7.83-.07,11.75-.2,1.12-.24,2.33-2,2.15-.47,0-.18.42-.11.67.21.7,1.11,1,1.1,1.78-16.83,12.75-33.22,26.06-49.32,39.72-8.32,7.07-16.6,14.19-24.93,21.25-2,1.68-4.08,3.2-6,4.89-1.16,1-2.6,1.37-3.87,2.12-.94.55-2.12.15-3.09-.24-19.94-8.06-40.06-15.75-58.94-26.22-10.55-5.85-20.82-12.18-31.35-18-5.19-2.89-10.56-5.46-15.3-9.13a3.73,3.73,0,0,1-1.73-3.26c.06-3.71-.75-7.34-1.13-11-.49-4.72-1.13-9.43-1.7-14.15-.81-6.82-1.79-13.61-2.89-20.39-.23-1.43-.35-2.87-.52-4.3a2,2,0,0,0-.11-.75c-2.58-4.34-3.06-9.38-4.65-14-.15-.46-.27-.94-.48-1.69-.69,1.13-1.29,2-1.79,3A1.76,1.76,0,0,1,67,164c-.76-.23-1.19,0-1.37.78a10.31,10.31,0,0,1-.55,1.68c-.37.91-.78,1.66.51,2.35a2.14,2.14,0,0,1,.78,2.41c-.42,1.5-.88,3-1.37,4.48-.3.88-1.2,1.18-1.9,1.58a1,1,0,0,0-.61,1.06,20.64,20.64,0,0,0,1,6.76c.63,1.83,1.36,3.63,2.11,5.43.49,1.17.22,1.92-1,2.1A4.78,4.78,0,0,1,59.89,191C55.4,186,51.54,180.53,49.2,174.16c-2.67-7.26-3.63-14.7-1.69-22.32a23.9,23.9,0,0,1,4.58-8.92c-1.57-.58-3.14-1.08-4.65-1.73-7.23-3.12-15-4.53-22.44-6.95q-7.92-2.56-15.67-5.66a62.94,62.94,0,0,0-6.26-2.09A1.35,1.35,0,0,1,1.92,125c0-1.4,0-2.81-.1-4.21-.05-.77.12-1,1-1,3.85.31,7.7.52,11.55.83,4.77.39,9.54.87,14.31,1.28,6.55.55,13.11,1.1,19.66,1.58,4.11.3,8.22.49,12.33.71.34,0,.79.19.95-.36.47-1.6,1.86-2.36,3-3.3.84-.66,1.68-1.3,2.54-1.92.48-.34.43-.58,0-1-6.78-7-13.48-14.07-21.88-19.18-1.19-.72-1.93-1.92-3.2-2.47a.38.38,0,0,1-.19-.31c0-1.68-.11-3.36-.1-5,0-.92.92-1.32,1.81-1.16,3.21.54,6.43-.1,9.62.09,4.51.27,9,.42,13.55.94a144.09,144.09,0,0,0,14.84,1c.65,0,.78-.13.65-.79a3.47,3.47,0,0,1,1-3.5c.43-.39.75-.49,1,.2.64,1.68,2.2,2.53,3.42,3.69a1.91,1.91,0,0,0,1.57.32c3.69-.22,7.39-.25,11.08-.25,1.89,0,3.48-1,5.18-1.65,13.81-5,27.5-10.31,41.36-15.17a10.21,10.21,0,0,0,3.39-1.33c.53-.43.94,0,1.24.43.94,1.52,2,3,2.8,4.56.55,1.06.89,1.31,2,.48a57.36,57.36,0,0,1,8.38-5c5-2.64,9.77-2.08,14.65,0A50.5,50.5,0,0,1,189,79.18c.68.5.84.36,1.23-.33a12.24,12.24,0,0,1,3.15-3.35,2.06,2.06,0,0,1,1.83-.27,231.47,231.47,0,0,1,24.15,7.45c4.19,1.5,8.42,2.91,12.58,4.48a8,8,0,0,0,5.06.18c10-2.58,20.12-5,30.14-7.69a237.17,237.17,0,0,0,26-8.2c.78-.31,1-.2,1.14.59.38,1.91.83,3.81,1.31,5.69.19.72-.23,1.1-.62,1.55-4.75,5.45-9.11,11.2-13.46,17a5.88,5.88,0,0,0-1.68,2.36C281.13,98.38,281.19,97.16,282,96.72ZM195.64,223h0l-.28.24h0a18.48,18.48,0,0,0-2.69,2c-1.73,1.23-2,2.27-1.31,4.39,0,.46.06.93.12,1.38q.56,4,1.13,8.07-.52.48.12.78l.11,1c-.31.29-.26.54.08.76l.19,1.53c-.26.18-.21.35,0,.5l.21,1c-.26.19-.19.35,0,.5a3.33,3.33,0,0,0,.24,1.53c0,.38,0,.76,0,1.14q1.2,12,2.42,24.1c-.13.68-.23,1.39-1.17,1.37a1.39,1.39,0,0,1-.5-1.35,14.31,14.31,0,0,0-.06-2.54c-.85-4.55-.85-9.19-1.44-13.76-.41-3.15-.71-6.31-1.06-9.46,0-.7.35-1.62-1-1.53-2.47.16-4.84-.6-7.24-1-3.91-.63-7.76-1.6-11.63-2.42-.19-.09-.39-.17-.57-.27s-.82-.21-.84-.68.54-.61.91-.7a19.26,19.26,0,0,0,2.77-1.26c1.4-.58,1.51-1,.67-2.27-1.32-2.08-1.32-2.08.81-3.44.62-.39.9-.8.35-1.54-.8-1.09-1.49-2.26-2.39-3.28-.74-.85-.53-1.31.58-1.5.53-.09,1.12.21,1.59-.24.41,0,.35-.24.13-.47a16.07,16.07,0,0,0-3.23-2.93c-.14-.29-.48-.55-.16-.91s.69-.19,1.06-.09c4.75,1.32,9.51,2.53,14.34,3.51,1.06.21,1.34,0,1.31-1.06a41.68,41.68,0,0,1,.16-4.33c.44-5.42,1-10.83,1.37-16.25.43-6.14.94-12.27,1.45-18.41s1.08-12.18,1.33-18.29c0-.47.46-1-.07-1.41s-.83.23-1.23.39-1,.57-1.6.79c-7.49,3-14.71,6.55-21.92,10.17-5.72,2.87-11.54,5.54-17.31,8.31a8.33,8.33,0,0,0-3.62,2.76c-1.12,1.66-1.89,1.64-3.49.6a1.92,1.92,0,0,0-.48-.15c-.51-1-1.64-.62-2.35-1-1.34-.81-2.69-1.62-4-2.45-7.22-4.52-14.39-9.12-21.62-13.62-1.6-1-3-2.31-4.91-2.85l-.25-.21-.28-.26h0a.46.46,0,0,0-.48-.29h0l-.29-.21c-3.26-2.51-6.74-4.68-10.19-6.9a33,33,0,0,0-7.82-4c-.72-.22-1.42-.53-2.13-.8-5.22-2-10.44-4-15.77-5.64-.3-.1-.63-.4-.93-.08s-.07.64,0,1l1.17,4.28.21.24h0c.45,2.6,1.29,5.09,2,7.63,1.64,5.14,2.71,10.47,5.19,15.33,2.17,4.26,4.38,8.5,6.58,12.75,1.15,2.22,2.33,4.42,3.48,6.63.35.68.61,1.35-.62,1.27a7.22,7.22,0,0,0-2.25-1.19v1.21c0,1.36-.06,2.71-.1,4.07,0,.37.08.81-.36,1s-.63-.13-.8-.44-.57-.33-.9-.25-.42.49-.42.83.07.93,0,1.4c-.11,2.14,1.16,4.41-.55,6.43-.08.09,0,.33,0,.5.18,1.6.37,3.2.55,4.8a.43.43,0,0,0,.15.53h0a32.84,32.84,0,0,1,0,5c-.13,1.64.82,3.09,1,4.68a.89.89,0,0,0,.64.72l5.71,2.1c.56.31,1.11.62,1.68.91,10.6,5.35,20.65,11.68,31,17.45,3.28,1.82,6.47,3.83,9.91,5.38l.46.27h0l.52.27h0l.52.27,0,0a.6.6,0,0,0,.53.27h0a.53.53,0,0,0,.52.27v0a.48.48,0,0,0,.52.27h0a2.85,2.85,0,0,0,.38.31q6.76,3.51,13.71,6.68a1,1,0,0,0,.72.17l0,0c.07.29.29.3.53.28l0,0a.43.43,0,0,0,.53.28l0,0a.48.48,0,0,0,.53.27l0,0a.61.61,0,0,0,.53.27h0a.9.9,0,0,0,.79.27l0,0c.1.26.3.29.53.28l0,0a.54.54,0,0,0,.53.26v0l.2.14c.45.23.89.48,1.36.67q14,5.76,28,11.48a21.46,21.46,0,0,0,4.8,1.65c.39.3.77.52,1.23.08,1.72-1.62,3.46-3.22,5.19-4.84a2.58,2.58,0,0,0,.53-.32c11.33-10,22.66-20,34.26-29.68,9.15-7.64,18.38-15.19,27.76-22.55,3.07-2.41,6.24-4.69,9.16-7.29,1.27-.92,2.55-1.82,3.79-2.77a1.43,1.43,0,0,0,.69-1.14c.17-3.12.13-6.24.1-9.36-.06-4.88-.05-9.75-.36-14.62q-.12-9.6-.22-19.2a3.6,3.6,0,0,0-.39-1.31c-.81-2-1.92-3.05-4.18-1.95-.62.3-1,0-1.1-.89s.1-1.76.07-2.64c-.48-.94-1.32-.51-2-.47s-1.31.47-1.8-.1.09-1.18.27-1.76a1.17,1.17,0,0,1,.05-.11c.11-.26.37-.54.08-.8s-.48-.06-.72,0l-2.77.94c-.39.13-.84.43-1.16,0s.12-.72.31-1c1.74-2.61,3.81-5,5.69-7.47l.6,0-5.58,7.74c1-.35,1.57-.64,2.21-.8s1.75-1,2.36-.38-.13,1.56-.46,2.32-.12.81.59.66a3.9,3.9,0,0,1,3.07.41c.23,1-.22,1.93-.06,2.9.08.5.19.78.8.6,1.58-.48,3.22-1,4.05,1.28v-8.6c.2-3.23-.06-6.48.32-9.7a.86.86,0,0,0,.06-1.28c.05-1.69.1-3.38.16-5.07.74-.71.13-1.26-.21-1.84a3.31,3.31,0,0,0,0-2.77c0-1.94,1.08-3.64,1.23-5.55,0-.42.22-.9-.1-1.22s-.8,0-1.17.15c-8.9,4.06-17.83,8.07-26.69,12.23-6.2,2.92-12.32,6-18.46,9.09-3.33,1.65-6.66,3.32-9.89,5.17-1,.46-2,.91-3,1.39-7,3.46-14,7-21.49,9.28-.5.28-.28.75-.29,1.15,0,1.57,0,3.14-.07,4.71-.22,8.92-1.09,17.8-1.69,26.69-.3,4.45-.65,8.89-1,13.34-.27,3.68-.55,7.36-.82,11.05a10.11,10.11,0,0,0-.06,2.54c2.61-1.3,4.54-3.33,6.74-5,.15-.08.31-.16.26-.37v0c.5.09.76-.33,1.09-.56,2.6-1.76,5.18-3.55,7.77-5.33l.08.55c-.3.23-.59.48-.89.7-3.49,2.59-7.13,5-10.38,7.88Zm20.7-88.72h0a.47.47,0,0,0,.3-.48h0l.24-.29h0a.48.48,0,0,0,.3-.49h0l.29-.28.37-.32.55.09c-.26.43-.51.88-.8,1.3-5,7.22-10.12,14.37-15.4,21.4a27.76,27.76,0,0,0-3.92,6.07l-.11.15.14-.11a2.19,2.19,0,0,0,1.31-.43c6.05-2.89,11.93-6.11,17.81-9.33q23.6-12.87,48-24c3.23-1.47,6.49-2.89,9.76-4.29,3-1.28,5.57-3.37,8.25-5.24,2.31-1.6,4.14-3.78,6.37-5.47,4.1-3.11,7.73-6.75,11.57-10.16,4.28-3.79,8.6-7.56,12.84-11.41,1-.91,2.38-1.48,2.88-2.89h0c.27.09.45,0,.52-.27h.31a18.88,18.88,0,0,0,3.28-2.77l0,0a.47.47,0,0,0,.45-.29c.4-.31.8-.64,1.2-.94s.64-.4.42-.91-.69-.39-1.06-.25a17.06,17.06,0,0,0-1.84.85,184.18,184.18,0,0,1-24.68,11.17c-4.9,1.82-9.59,4.15-14.78,5.29-3.42.75-6.59,2.56-10,3.64-6.1,1.94-12.15,4-18.33,5.74-7.35,2-14.74,3.91-22.19,5.56-2.37.52-4.83.78-7.22,1.9.59.55,1.13,1,1.61,1.53.27.29.7.7.19,1.07s-.87,0-1.11-.46c-.1-.23-.21-.46-.33-.68-.3-.54-.64-.82-1.12-.15-.19.27-.51.47-.67.76-1.81,3.24-4.3,6-6.26,9.14-4.07,6.47-7.93,13.07-11.81,19.66-2.54,4.32-5,8.67-7.55,13-.19.32-.34.61,0,.88.54.41.5-.18.65-.41q2.91-4.49,6.19-8.71c4.51-5.86,8.93-11.78,13.1-17.88Zm-44.1,35.47a.62.62,0,0,0,.61-.27c.12,0,.36,0,.25-.19s-.27,0-.37.11-.44.06-.53.31l-.41.15s.05.08.08.09A.29.29,0,0,0,172.24,169.77Zm-85.7-21.72h0c-.11-.26-.35-.26-.58-.28l-.06,0a31.67,31.67,0,0,0-5.64-2.27Q55.46,136.73,30.61,128c-2.23-.78-4.38-1.84-6.79-2.06-.46-.07-.92-.13-1.38-.21-4.86-.79-9.59-2.13-14.34-3.37-1-.26-2.52.49-2.57,1.46a2.23,2.23,0,0,0,1.53,2,7,7,0,0,0,1.61.36,12.7,12.7,0,0,1,1.85.41c7.32,2.72,15,4.37,22.36,6.83,3.21,1.08,6.67,1.22,9.87,2.38,7.48,2.72,15.06,5.18,22.54,7.95,7.87,2.91,15.88,5.44,23.8,8.21,2.5.88,5.08,1.64,7.29,3.24,5.78,4.19,11.73,8.11,17.83,11.82,7.26,4.4,14.42,9,21.64,13.44,2,1.23,4,2.39,6.06,3.51,1.1.6,1.78.07,1.74-1.17A2.1,2.1,0,0,0,142.5,181c-2.83-2-5.72-4-8.71-5.77-11.69-7-23.39-14-34.73-21.59a5.17,5.17,0,0,1-1.84-1.51h.53a8.25,8.25,0,0,1,1.39.61c14,9.5,28.83,17.6,42.8,27.1.24.16.43.39.78.14,1.29-.91,2.87-1.16,4.31-1.74,13.4-5.4,26.75-11,40.53-15.39a3.48,3.48,0,0,0,1.66-.87c-4.28-1.31-8.39-2.6-12.59-3.53-1.45-.45-2.91-.87-4.35-1.34a1.74,1.74,0,0,0-1.76.31,20.77,20.77,0,0,1-3.79,2.75,10.86,10.86,0,0,0-3.5,3c-2.6,2.89-5.43,5.46-9.58,5.93-1,.11-1.87-.53-2.86-.38-1.81-.71-3.49-1.53-4-3.68a4.91,4.91,0,0,0-.55-1.67c-1-1.54-.09-2.44.91-3.39a29.45,29.45,0,0,0,3.92-3.73h0l.27,0c1.35-.8,2.15-2.14,3.16-3.28.22-.25.32-.62-.08-.7s-1.07-.44-1.69,0a17.84,17.84,0,0,1-10.6,2.5,6,6,0,0,0-3,.69c-3.62,1.78-7.26,3.57-11.49,3.14a5.79,5.79,0,0,1-4.61-4.7,7.21,7.21,0,0,1,.26-4.24c.33-.92,1.32-1,2-1.33,1.64-.9,3.31-1.75,5.24-2.75-.75-.25-1.14-.39-1.54-.5-16-4.62-31.89-9.46-47.65-14.79a2.27,2.27,0,0,0-1.1-.23c-2.56.67-5-.17-7.56-.33-8-.51-16.11-.73-24.14-1.43-4.86-.43-9.71-.87-14.58-1.26a18,18,0,0,0-4.58-.21c1,.4,2,.69,3,1Q53.19,135.08,74,142.39a168.93,168.93,0,0,1,17.36,7c-.1.21-.3.23-.5.25-1.28-.29-2.34-1.19-3.69-1.28A.61.61,0,0,0,86.54,148.05Zm120-29.61c.5,2.75.56,2.78,2.94,1.6.41,0,.48-.29.52-.61a16.25,16.25,0,0,0,5.28-5.09,6.46,6.46,0,0,1-5.56,1.08,4.81,4.81,0,0,1-2.65-4.23,9.27,9.27,0,0,0-.63,6.48C206.44,117.93,206.29,118.21,206.55,118.44ZM117.12,133l.26.2c.34.36.32-.29.57-.2l.3.48c1,1.13,2.36,1.21,3.75,1.46a6.62,6.62,0,0,1-.73-5.75c.28-.52.55-1.05.85-1.55a8,8,0,0,1,6.59-4.33,12.7,12.7,0,0,1,6.77,1.79c2.44,2,2.8,4.81,3.32,7.93,1-1.7,2.51-2.75,3.25-4.38a1.86,1.86,0,0,0,.38-2l.53,0c.73-.06.66-.66.7-1.12.19-1.75-1-2.52-2.32-3.24-.35-.37-.8-.1-1.2-.21-2-1.3-4.39-1.47-6.67-1.72-5.1-.55-9.44,1.39-13.35,4.5a5.78,5.78,0,0,0-2,2.6c-.49,0-.79.26-.78.79l-.27.23h0c-2.12,2.09-2.12,3.25,0,4.61Zm7.68,21.66h0a2.87,2.87,0,0,0,2.07,2,8,8,0,0,0,4,.16c2.79-.46,5.24-1.87,7.84-2.88a3.16,3.16,0,0,0,1.65-1.13c.29-.44.57-.55,1,0a1.51,1.51,0,0,0,1.61.65,53.73,53.73,0,0,0,8.37-2.12,3.19,3.19,0,0,0,1.52-1.1c.57-.83,1.09-1.48,1.47.11.08.35.4.38.67.51,1.27.56,2.3,0,3.31-.67.31-.11.82-.21.61-.62-.82-1.53-1-3.47-2.85-4.33-1.33-.64-2.68-1.24-4-1.83a3.61,3.61,0,0,0-2.06-.18c-4,.65-7.62,2.54-11.67,2.76-.2-.23-.36-.14-.51.06a19.93,19.93,0,0,0-3.54,0,.45.45,0,0,0-.54.27,3.41,3.41,0,0,0-2,.34c-2.06,1.29-4.33,2.15-6.63,3.33a.75.75,0,0,1,.68.61c-.32-.07-.65-.13-1-.21-.69-.17-.93.1-.76.78a8.06,8.06,0,0,0,.47,3A.41.41,0,0,0,124.8,154.69ZM89.72,197.23l.3,0L89.9,197c-.12-.31-.22-.64-.37-.94l-8.18-16.12c-.08-.15-.11-.42-.53-.33C82.76,189.66,84,199.83,85.35,210c.37-2-.19-4-.14-6,0-.9.13-1.61,1.33-1.43.76.12,1.12-.2,1.06-1.07-.09-1.23,0-2.46,0-3.7s.25-1.37,1.34-.94C89.19,197,89.45,197.11,89.72,197.23Zm-3.44-96.61h0c.22-.47-.19-.7-.4-1a15.13,15.13,0,0,1-2.17-4c-.27-.81-.69-1.2-1.57-1.07a40.41,40.41,0,0,1-6.6.05c-4.11-.07-8.22-.29-12.31-.6-3.46-.26-6.93-.06-10.39-.31-1.11-.07-2.24,0-3.41-.18.14.58.58.65.87.84,1.63,1.08,3.31,2.08,4.91,3.19a109.45,109.45,0,0,1,18.68,15.89c.37.41.67.93,1.45.79a80.58,80.58,0,0,1,11.4-.88c3.7,0,7.4,0,11.09.06.73,0,1-.23.93-1a10.71,10.71,0,0,1,.35-3.66c.23-.89-.17-1-.81-1.16s-1,.38-1.28.77a1.83,1.83,0,0,1-2.57.61,43.64,43.64,0,0,1-4.5-2.62c-1.31-.93-2.51-2.07-2.16-4,.13-.73-.5-1.11-1-1.52C86.7,100.71,86.63,100.37,86.28,100.62Zm21.94-7.93L113.79,91A63.45,63.45,0,0,1,129,88.28a32.24,32.24,0,0,1,15.05,2.28c.85.37,1.13.19,1.56-.49A38.42,38.42,0,0,1,150,84.28c1-1.06,2.58-2.08,2.69-3.23s-1.22-2.59-1.84-3.94c-.45-1-.84-1.25-2-.79-13.58,5.16-27,10.69-40.57,15.93a3.4,3.4,0,0,0-2,1Zm66.67,130.25c-.1,0-.28-.09-.3-.06s.06.17.16.2c.68.75,1.38,1.49,2.05,2.25s.51,1.33-.42,1.63a12.43,12.43,0,0,1-1.89.31c.87,1.26,1.66,2.45,2.52,3.59a1.33,1.33,0,0,1,0,1.84,6.7,6.7,0,0,0-.7,4.2,1.37,1.37,0,0,1-1,2.06,14.34,14.34,0,0,0-2.76,1.34,1.15,1.15,0,0,0,.36.21c5.93,1.19,11.78,2.81,17.85,3.27.54,0,1,.27.86-.61-.55-4.17-1-8.35-1.81-12.47-.11-1.3-.7-2.52-.6-3.85l0-.47c0-.17,0-.24-.18-.24Zm-27.44-61.22c.07.29,0,.65.24.88.14,3.32.64,4.1,3,4.71a7.72,7.72,0,0,0,6.81-.74,24.1,24.1,0,0,0,5.8-5.46,5.67,5.67,0,0,1,1.34-1.51c3.05-1.81,6.26-3.41,8.55-6.26,0,0,.15,0,.26,0-.09,1.61,1.31,1.26,2.16,1.54,1,.34,1.8-.49,1.51-1.56a2.48,2.48,0,0,0-.76-1.42,11.51,11.51,0,0,0-2.12-3.59c-2.24-2.59-4.86-3.18-7.38-1.77h0c-.58-.19-.92.28-1.32.53-1.76,1.08-3.43,2.36-5.27,3.25a19.13,19.13,0,0,0-3.92,2.35.55.55,0,0,0-.48.47c-.34.37-.69.73-1,1.11-1.79,2.07-3.46,4.27-6,5.61-.51.27-1,.66-1.49.94C146.73,161.16,147.17,161.42,147.45,161.72Zm69.63-67.41a6.09,6.09,0,0,0,2,.75l2.22,1.2A32.48,32.48,0,0,1,229,101.8a1.37,1.37,0,0,0,1.46.54c8.46-1.7,16.85-3.81,25.55-3.88a17.56,17.56,0,0,1,8.24,1.73,9.51,9.51,0,0,0,3.59,1c.17.36.51.3.77.24,1.48-.34,3-.69,4.43-1.1a1.68,1.68,0,0,0,.74-.67c1.46-1.92,2.89-3.86,4.36-5.78,3.91-5.11,7.7-10.32,11.95-15.18a5.32,5.32,0,0,0,1.42-2l-3.29,1.06a4.45,4.45,0,0,0-2.76,1.64c-.72,1.15-1.58,2.2-2.41,3.28-4.55,6-8.9,12.08-13.85,17.73-.37.42-.72.85-1.37.77a1.09,1.09,0,0,1,.4-1.12c.64-.68,1.24-1.4,1.84-2.12,4.09-4.84,7.83-9.94,11.8-14.87,1.08-1.34,2.18-2.65,3.29-4a1.4,1.4,0,0,0-1.12.06c-4.85,1.39-9.68,2.84-14.55,4.13-9.51,2.52-19.06,4.88-28.68,6.9-3.59.75-7.18,1.79-10.93,1.3-.48-.35-.58-1-1.2-1.25-1.48-.51-2.94-1-4.41-1.56a6.19,6.19,0,0,0-.67-.36c-4.65-1.72-9.25-3.61-14-5.1s-9.07-3.8-14-4.4c-1.92-.24-2.57-.12-3.42,1.83a.91.91,0,0,0,.3,1.29c.93.74,1.8,1.55,2.68,2.36a66,66,0,0,1,8.22,9.36c.48.64.86,1,1.73.47a7.23,7.23,0,0,1,3.29-.83A30.55,30.55,0,0,1,217.08,94.31Zm-48.42-9.43-.26-.06c.55-.49,1.23-1,.19-1.61a2.62,2.62,0,0,0-4.05,1.42c-.09.23-.17.47-.26.71-.34.82-.61,1.62.84,1.66-.7.71-1.6,1-1.75,2a38,38,0,0,0-.82,7.06,21.22,21.22,0,0,0,0,6.46A14.5,14.5,0,0,1,169,98.59c3.22-1.13,6.52-.8,9.81-.73,3.28.59,5.68,2.73,8.16,4.69,3.43,2.72,4.23,6.73,5.11,10.65a15.23,15.23,0,0,1,.07,6.2,29.21,29.21,0,0,1-3.63,8.73c-2.36,3.68-6.18,5.05-10.18,6.19a4.65,4.65,0,0,0,3.67,1.85c2.42.66,4.92.77,7.44,1.21l-3.23,1.18a21.67,21.67,0,0,0,5,1.66c.17.2.33.26.47,0a8.13,8.13,0,0,0,.69-2.74c.22-.81-.14-1.16-.92-1.2l0,0a.78.78,0,0,1,0-.26,43.81,43.81,0,0,0,2.1-9.47,40.83,40.83,0,0,0-5.39-27.25c-3.25-5.57-7.33-10.4-13.24-13.38C172.9,84.9,171,83.75,168.66,84.88ZM45.34,92c0,2.35.74,4,2.86,4.9a3.89,3.89,0,0,1,.92.66c6.9,5.66,13.27,11.91,19.9,17.87,1.44,1.3,1.41,1.33,3.12.36,1.48-.84,1.47-.83.27-2.1A136.85,136.85,0,0,0,53.08,97,75.06,75.06,0,0,0,45.34,92Zm126.32,78.27c-.5-.28-.7-.21-.9-.13l-25.43,10a1.72,1.72,0,0,0-.91,2.56c.15.33.38.37.59.24.81-.49,1.77-.47,2.61-.92,5.4-2.86,11-5.38,16.48-8C166.57,172.85,169,171.58,171.66,170.26Zm45.57-59.75a11,11,0,0,0,.41-3.88c-.14-.85-.54-1.19-1.35-1.13a5.16,5.16,0,0,0-1.38.1,2.87,2.87,0,0,1-1.4.19A5.12,5.12,0,0,1,217.23,110.51Zm-43.61,58.61c.32.21.55.09.73-.2,0,0-.08-.14-.13-.15A.51.51,0,0,0,173.62,169.12Zm1.42-.45.08-.06-.07-.07-.11.1ZM80.82,178.93l0,0a.18.18,0,0,0,0,.1l.1,0Zm134.79-64.85-.06-.09a.87.87,0,0,0-.18.11l.06.1Z" transform="translate(-1.81 -71.29)"/><path class="cls-1" d="M277.08,215.17c-.27-.83-1.32-1-1.22-1.76,0-.26-.24-.73.23-.69,1.36-.52,1.76-1,2-2.15.25,1-.05,2.15.6,2.66.23.27-.24.56-.47,1A1.76,1.76,0,0,1,277.08,215.17Z" transform="translate(-1.81 -71.29)"/><path class="cls-1" d="M282,96.72c-.79.44-.85,1.66-2.12,1.88a5.88,5.88,0,0,1,1.68-2.36Z" transform="translate(-1.81 -71.29)"/><path class="cls-1" d="M278.12,198.82a.76.76,0,0,1-.08-1C278,198.29,278.11,198.38,278.12,198.82Z" transform="translate(-1.81 -71.29)"/><path class="cls-1" d="M277.87,190.4c-.27-.23-.22-.48-.06-.75C277.84,190,277.82,190.08,277.87,190.4Z" transform="translate(-1.81 -71.29)"/><path class="cls-2" d="M86.11,217.45c-.18-1.6-.37-3.2-.55-4.8,0-.17-.11-.41,0-.5,1.71-2,.44-4.29.55-6.43,0-.47-.06-.94,0-1.4s0-.72.42-.83.68-.13.9.25.39.61.8.44.35-.63.36-1c0-1.36.07-2.71.1-4.07l1.11.55c.64.31,1,.17,1.14-.57,1.23.08,1-.59.62-1.27-1.15-2.21-2.33-4.41-3.48-6.63-2.2-4.25-4.41-8.49-6.58-12.75-2.48-4.86-3.55-10.19-5.19-15.33a5.19,5.19,0,0,1,.89.06l15.24,3.9a3.12,3.12,0,0,1,1.38.61l10.78,9.48c3,2.66,6,5.33,9,8,3.76,3.29,7.55,6.55,11.31,9.84,3,2.64,6,5.33,9.05,8,4.52,4,9.07,7.9,13.59,11.86,2.17,1.89,4.35,3.78,6.48,5.71.76.67,1.26.64,1.94-.15a81.15,81.15,0,0,0,5.57-7.09q13.34-19.44,26.78-38.8c1.76-2.54,3.37-5.18,5.36-7.55-.25,6.11-.82,12.2-1.33,18.29s-1,12.27-1.45,18.41c-.37,5.42-.93,10.83-1.37,16.25a41.68,41.68,0,0,0-.16,4.33c0,1-.25,1.27-1.31,1.06-4.83-1-9.59-2.19-14.34-3.51-.37-.1-.74-.27-1.06.09s0,.62.16.91c-.16.29-.39.6,0,.91a12.46,12.46,0,0,0,3.15,2.49c-.47.45-1.06.15-1.59.24-1.11.19-1.32.65-.58,1.5.9,1,1.59,2.19,2.39,3.28.55.74.27,1.15-.35,1.54-2.13,1.36-2.13,1.36-.81,3.44.84,1.32.73,1.69-.67,2.27a19.26,19.26,0,0,1-2.77,1.26c-.37.09-.93.12-.91.7s.52.51.84.68.38.18.57.27c.11,1.24,1,1.64,2.05,1.83q8.9,1.53,17.79,3.1c.35,3.15.65,6.31,1.06,9.46.59,4.57.59,9.21,1.44,13.76a14.31,14.31,0,0,1,.06,2.54,1.39,1.39,0,0,0,.5,1.35,1.55,1.55,0,0,1-.32.94c-.77,1.4-1.5,2.82-2.25,4.24a21.46,21.46,0,0,1-4.8-1.65q-14-5.7-28-11.48c-.47-.19-.91-.44-1.36-.67a.41.41,0,0,1-.2-.14v0l-.53-.26,0,0c-.11-.22-.32-.24-.53-.28l0,0c-.18-.32-.52-.21-.79-.27h0c-.1-.24-.34-.21-.53-.27l0,0c-.09-.26-.33-.23-.53-.27l0,0c-.09-.26-.32-.25-.53-.28l0,0c-.09-.27-.32-.26-.53-.28l0,0a1.9,1.9,0,0,0-.38-.32q-6.78-3.35-13.58-6.67a3.88,3.88,0,0,0-.85-.17h0c-.08-.26-.31-.24-.52-.27v0c-.08-.27-.32-.24-.52-.27h0c-.08-.26-.32-.23-.53-.27l0,0c-.08-.27-.32-.23-.52-.27h0c-.09-.25-.32-.22-.52-.27h0l-.46-.27c-3.44-1.55-6.63-3.56-9.91-5.38C116,243,106,236.69,95.38,231.34c-.57-.29-1.12-.6-1.68-.91-.66-1.12-1.32-2.25-2-3.36-1.81-3-3.64-6.07-5.46-9.1h0A.52.52,0,0,0,86.11,217.45Z" transform="translate(-1.81 -71.29)"/><path class="cls-2" d="M268.87,160.08c0,.88-.14,1.75-.07,2.64s.48,1.19,1.1.89c2.26-1.1,3.37,0,4.18,1.95a3.6,3.6,0,0,1,.39,1.31q.11,9.6.22,19.2c-.81,3.3-1.17,6.69-1.71,10-.63,3.9-1.15,7.82-1.7,11.73-.29,2-.54,4.08-.81,6.12-2.92,2.6-6.09,4.88-9.16,7.29-9.38,7.36-18.61,14.91-27.76,22.55-11.6,9.68-22.93,19.68-34.26,29.68a2.58,2.58,0,0,1-.53.32c-.9-.59-1.79-1.19-2.68-1.79q-1.22-12-2.42-24.1c0-.38,0-.76,0-1.14a2.67,2.67,0,0,0,1.35-.65q11.06-7.63,22.11-15.24c.88-.6,1-1.17.46-2,.34-.42,1.64-.77.09-1.31a12.1,12.1,0,0,1,.13-2c.09-.71.49-1.62-.56-2.07-.05-1-1-1.08-1.62-1.5.05-1.11.69-2.06.86-3.12.1-.65.79-1.29.13-2,.46-.59.7-1.18-.12-1.67s-.68-1-.41-1.73c1-2.58,2.16-5.09,2.14-8-1,.77-2,1.53-3,2.26q-4,3-8.09,5.89c-2.59,1.79-5.17,3.58-7.77,5.34-.33.23-.59.65-1.09.56a1.89,1.89,0,0,1,.19-1c1.31-3.45,2.91-6.76,4.53-10.07.89-1.82,1.62-3.72,2.43-5.59.09-.22.32-.49,0-.66s-.45.09-.58.33c-.28.47-.54,1-.86,1.4-3.24,4.45-6.44,8.92-9.37,13.58a22.6,22.6,0,0,1-3.28,4.79c.27-3.69.55-7.37.82-11.05.33-4.45.68-8.89,1-13.34.6-8.89,1.47-17.77,1.69-26.69,0-1.57,0-3.14.07-4.71,0-.4-.21-.87.29-1.15,2.79,2.6,5.58,5.18,8.36,7.78L220,188.53c2.6,2.44,5.21,4.86,7.8,7.3a.71.71,0,0,0,1.16,0c3.26-3,6.55-5.89,9.83-8.83,2.56-2.29,5.11-4.59,7.67-6.87q7-6.22,13.93-12.44Z" transform="translate(-1.81 -71.29)"/><path class="cls-3" d="M268.87,160.08l-8.52,7.63q-7,6.21-13.93,12.44c-2.56,2.28-5.11,4.58-7.67,6.87-3.28,2.94-6.57,5.87-9.83,8.83a.71.71,0,0,1-1.16,0c-2.59-2.44-5.2-4.86-7.8-7.3l-16.44-15.38c-2.78-2.6-5.57-5.18-8.36-7.78,7.52-2.27,14.48-5.82,21.49-9.28,1-.48,2-.93,3-1.39a4.72,4.72,0,0,0,1-.13c2.52-.86,5.06-1.7,7.56-2.63,7.78-2.9,15.54-5.88,23.34-8.73s15.54-5.35,23.18-8.38a3.31,3.31,0,0,1,0,2.77l-7.91,11.73c-1.88,2.5-3.95,4.86-5.69,7.47-.19.29-.61.63-.31,1s.77.12,1.16,0l2.77-.94c.24-.08.51-.21.72,0s0,.54-.08.8a1.17,1.17,0,0,0-.05.11c-.18.58-.75,1.19-.27,1.76s1.18.13,1.8.1S268.39,159.14,268.87,160.08Z" transform="translate(-1.81 -71.29)"/><path class="cls-3" d="M193.65,166.93c-2,2.37-3.6,5-5.36,7.55q-13.41,19.38-26.78,38.8a81.15,81.15,0,0,1-5.57,7.09c-.68.79-1.18.82-1.94.15-2.13-1.93-4.31-3.82-6.48-5.71-4.52-4-9.07-7.9-13.59-11.86-3-2.64-6-5.33-9.05-8-3.76-3.29-7.55-6.55-11.31-9.84-3-2.65-6-5.32-9-8l-10.78-9.48a3.12,3.12,0,0,0-1.38-.61l-15.24-3.9a5.19,5.19,0,0,0-.89-.06c-.67-2.54-1.51-5-2-7.63a8.8,8.8,0,0,1,1.26.11c7,1.54,13.89,3.13,20.86,4.61,1,.21,2,.77,3.15.37,3.45,2.22,6.93,4.39,10.19,6.9l.29.21h0c.07.24.26.29.48.29h0l.28.26.25.21c.08.41.42.63.71.87,1.91,1.59,3.82,3.2,5.77,4.76q10.19,8.17,20.4,16.33a1.84,1.84,0,0,0,2.23.31c1.27-.75,2.52-1.54,3.78-2.31a1.92,1.92,0,0,1,.48.15c1.6,1,2.37,1.06,3.49-.6a8.33,8.33,0,0,1,3.62-2.76c5.77-2.77,11.59-5.44,17.31-8.31,7.21-3.62,14.43-7.18,21.92-10.17.55-.22,1.05-.56,1.6-.79s.72-.77,1.23-.39S193.65,166.46,193.65,166.93Z" transform="translate(-1.81 -71.29)"/><path class="cls-4" d="M91.38,149.35a168.93,168.93,0,0,0-17.36-7Q53.2,135,32.34,127.8c-1-.35-2-.64-3-1a18,18,0,0,1,4.58.21c4.87.39,9.72.83,14.58,1.26,8,.7,16.1.92,24.14,1.43,2.51.16,5,1,7.56.33a2.27,2.27,0,0,1,1.1.23C97.08,135.55,113,140.39,129,145c.4.11.79.25,1.54.5-1.93,1-3.6,1.85-5.24,2.75-.71.38-1.7.41-2,1.33a7.21,7.21,0,0,0-.26,4.24,5.79,5.79,0,0,0,4.61,4.7,5,5,0,0,0,2.86,1.48,11.93,11.93,0,0,0,9.26-1.49,6.81,6.81,0,0,1,3-1.08,26,26,0,0,0,6.24-.86,4.29,4.29,0,0,1,2.11-.32,29.45,29.45,0,0,1-3.92,3.73c-1,.95-2,1.85-.91,3.39a4.91,4.91,0,0,1,.55,1.67c.49,2.15,2.17,3,4,3.68,1.51,2.13,3.55,2.65,6,2.13,4.07-.85,6.89-3.52,9.49-6.45a8.63,8.63,0,0,1,3.54-2.75,64.38,64.38,0,0,0,6.78-3.18c4.2.93,8.31,2.22,12.59,3.53a3.48,3.48,0,0,1-1.66.87c-13.78,4.43-27.13,10-40.53,15.39-1.44.58-3,.83-4.31,1.74-.35.25-.54,0-.78-.14-14-9.5-28.83-17.6-42.8-27.1a8.25,8.25,0,0,0-1.39-.61C95.84,150.74,93.44,150.42,91.38,149.35Z" transform="translate(-1.81 -71.29)"/><path class="cls-3" d="M198.23,161.33a27.76,27.76,0,0,1,3.92-6.07c5.28-7,10.39-14.18,15.4-21.4.29-.42.54-.87.8-1.3,2.44-3,4.57-6.23,6.7-9.45l.29-.48c.16,0,.31-.11.32-.3s-.1-.14-.15-.13-.24.18-.27.35L225,123c-.42.08-.56.46-.8.74-1.3,1.51-2.24,3.31-3.72,4.68a1.06,1.06,0,0,1,.21-.84c1.94-2.55,3.28-5.54,5.76-7.68,2-.32,3.93-.56,5.87-1,5.17-1.07,10.34-2.15,15.43-3.56,3.47-.56,6.8-1.68,10.2-2.56q6.81-1.75,13.5-3.92l8.45-2.68c-.42,1.18-1.54,1.75-2.28,2.65-1,1.19-2.39,2-3.08,3.47l-.11.11.12-.1a2.22,2.22,0,0,0,.57-.24c3.51-2.76,7.23-5.23,10.94-7.72a10.89,10.89,0,0,0,3-2.24.93.93,0,0,0,.82-.54h.07a.68.68,0,0,0,.69-.27l.08,0c.25,0,.5,0,.64-.27h0a.54.54,0,0,0,.57-.26H292c.25,0,.51,0,.64-.26h0c.5,0,1,.11,1.28-.51h0c.29,0,.6.08.77-.26h0c.22,0,.42,0,.51-.25h0a.47.47,0,0,0,.52-.26h0a.71.71,0,0,0,.61-.28,6.47,6.47,0,0,1,1-.61c3.79-1.67,7.4-3.69,11-5.65,2.93-1.58,5.88-3.12,8.82-4.67-.5,1.41-1.88,2-2.88,2.89-4.24,3.85-8.56,7.62-12.84,11.41-3.84,3.41-7.47,7-11.57,10.16-2.23,1.69-4.06,3.87-6.37,5.47-2.68,1.87-5.26,4-8.25,5.24-3.27,1.4-6.53,2.82-9.76,4.29q-24.45,11.16-48,24c-5.88,3.22-11.76,6.44-17.81,9.33a2.19,2.19,0,0,1-1.31.43Z" transform="translate(-1.81 -71.29)"/><path class="cls-4" d="M229.91,91.42c3.75.49,7.34-.55,10.93-1.3,9.62-2,19.17-4.38,28.68-6.9,4.87-1.29,9.7-2.74,14.55-4.13a1.4,1.4,0,0,1,1.12-.06c-1.11,1.37-2.21,2.68-3.29,4-4,4.93-7.71,10-11.8,14.87-.6.72-1.2,1.44-1.84,2.12a1.09,1.09,0,0,0-.4,1.12h0a9.51,9.51,0,0,1-3.59-1A17.56,17.56,0,0,0,256,98.46c-8.7.07-17.09,2.18-25.55,3.88a1.37,1.37,0,0,1-1.46-.54,32.48,32.48,0,0,0-7.71-5.54l-2.22-1.2Z" transform="translate(-1.81 -71.29)"/><path class="cls-5" d="M274.49,112.37c.69-1.46,2.09-2.28,3.08-3.47.74-.9,1.86-1.47,2.28-2.65h0a.49.49,0,0,0,.52-.26c.21-.17.48-.3.5-.7-4.14,1.5-8.26,2.91-12.45,4.13l-10.83,3.15-10.42,2.58-1,.18-.26.1a.51.51,0,0,0-.24,0,.85.85,0,0,0-.81.19l-.72.12-.33.11-2.35.43c-4.5.85-9,1.88-13.51,2.44-.7.09-1.47.21-1.56,1.17-2.48,2.14-3.82,5.13-5.76,7.68a1.06,1.06,0,0,0-.21.84h0c-.53,0-.54.38-.51.77h0c-.54,0-.53.4-.53.78l-.3.44a.5.5,0,0,0-.45.57h0l-.25.27h0a.44.44,0,0,0-.28.49h0l-.25.3-.07.43-.37.32a.3.3,0,0,0-.29.28h0c-.27.06-.31.26-.3.49h0l-.24.29h0a.41.41,0,0,0-.3.48h0l-.24.32c-4.17,6.1-8.59,12-13.1,17.88q-3.27,4.23-6.19,8.71c-.15.23-.11.82-.65.41-.35-.27-.2-.56,0-.88,2.52-4.33,5-8.68,7.55-13,3.88-6.59,7.74-13.19,11.81-19.66,2-3.13,4.45-5.9,6.26-9.14.16-.29.48-.49.67-.76.48-.67.82-.39,1.12.15.12.22.23.45.33.68.24.5.63.8,1.11.46s.08-.78-.19-1.07c-.48-.52-1-1-1.61-1.53,2.39-1.12,4.85-1.38,7.22-1.9,7.45-1.65,14.84-3.55,22.19-5.56,6.18-1.7,12.23-3.8,18.33-5.74,3.4-1.08,6.57-2.89,10-3.64,5.19-1.14,9.88-3.47,14.78-5.29a184.18,184.18,0,0,0,24.68-11.17,17.06,17.06,0,0,1,1.84-.85c.37-.14.8-.37,1.06.25s-.11.67-.42.91-.8.63-1.2.94a.46.46,0,0,0-.45.29l0,0a29.1,29.1,0,0,0-4.2,2.32c-7.12,3.92-14.2,7.91-21.64,11.21-2.13,1-4.27,1.86-6.4,2.81-.1,0-.57,0-.29.39,0,.07.24,0,.37,0v.28a10.89,10.89,0,0,1-3,2.24c-3.71,2.49-7.43,5-10.94,7.72a2.22,2.22,0,0,1-.57.24Z" transform="translate(-1.81 -71.29)"/><path class="cls-6" d="M192.62,239.13q-.57-4-1.13-8.07c-.06-.45-.08-.92-.12-1.38.72-.33.95-1.08,1.24-1.69.79-1.66,2.19-3,2.76-4.74h0a.24.24,0,0,0,.28-.24h0l.28-.26c3.25-2.91,6.89-5.29,10.38-7.88.3-.22.59-.47.89-.7,3.4-2.09,6.48-4.66,9.83-7a1.62,1.62,0,0,1-.27,1.37c-.6,1.35-1.19,2.72-1.84,4.05a1.9,1.9,0,0,0,.65,2.75c.67.44.58.85.18,1.45a10.08,10.08,0,0,0-1.29,2.9c-.35,1.35,0,2.71.92,3s1,.86.95,1.7c-.11,1.13-.38,2.43.23,3.34.49.73.14.77-.25,1C210.61,232.88,205,237,199.22,241c-1.89,1.33-3.64,2.92-5.86,3.74l-.21-1a.35.35,0,0,0,0-.5l-.19-1.53a.56.56,0,0,0-.08-.76c0-.34-.07-.67-.11-1A.67.67,0,0,0,192.62,239.13Z" transform="translate(-1.81 -71.29)"/><path class="cls-3" d="M97.22,152.17a5.17,5.17,0,0,0,1.84,1.51c11.34,7.58,23,14.57,34.73,21.59,3,1.79,5.88,3.73,8.71,5.77a2.1,2.1,0,0,1,1.15,1.71c0,1.24-.64,1.77-1.74,1.17-2-1.12-4.08-2.28-6.06-3.51-7.22-4.47-14.38-9-21.64-13.44-6.1-3.71-12-7.63-17.83-11.82-2.21-1.6-4.79-2.36-7.29-3.24-7.92-2.77-15.93-5.3-23.8-8.21-7.48-2.77-15.06-5.23-22.54-7.95-3.2-1.16-6.66-1.3-9.87-2.38-7.4-2.46-15-4.11-22.36-6.83a12.7,12.7,0,0,0-1.85-.41,7,7,0,0,1-1.61-.36,2.23,2.23,0,0,1-1.53-2c0-1,1.57-1.72,2.57-1.46,4.75,1.24,9.48,2.58,14.34,3.37.46.08.92.14,1.38.21a6.52,6.52,0,0,0,.77.43l39.14,13.81c5.47,1.93,10.91,3.93,16.4,5.78,1.91.65,3.73,1.63,5.78,1.85l.06,0a.56.56,0,0,0,.58.28h0c.14.27.39.27.65.27,1.35.09,2.41,1,3.69,1.28a53.41,53.41,0,0,0,5.89,2.51l.48.07Z" transform="translate(-1.81 -71.29)"/><path class="cls-4" d="M86.77,113.36a80.58,80.58,0,0,0-11.4.88c-.78.14-1.08-.38-1.45-.79A109.45,109.45,0,0,0,55.24,97.56c-1.6-1.11-3.28-2.11-4.91-3.19-.29-.19-.73-.26-.87-.84,1.17.16,2.3.11,3.41.18,3.46.25,6.93.05,10.39.31,4.09.31,8.2.53,12.31.6a40.41,40.41,0,0,0,6.6-.05c.88-.13,1.3.26,1.57,1.07a15.13,15.13,0,0,0,2.17,4c.21.27.62.5.4,1a1.91,1.91,0,0,1-1.42-.74,16.86,16.86,0,0,1-2.33-2.52,1.35,1.35,0,0,0-1.6-.75,1.49,1.49,0,0,0-1.07,1.55,9.9,9.9,0,0,0,.37,3c1,3.32,3.22,5.84,5.54,8.27.88.92,2,1.67,1,3.17C86.69,112.79,86.78,113.11,86.77,113.36Z" transform="translate(-1.81 -71.29)"/><path class="cls-6" d="M191.2,140.22a21.67,21.67,0,0,1-5-1.66l3.23-1.18c-2.52-.44-5-.55-7.44-1.21a23.47,23.47,0,0,1,3.65-.33.89.89,0,0,0,1-.72,57.87,57.87,0,0,0,1.82-7,29.21,29.21,0,0,0,3.63-8.73,15.23,15.23,0,0,0-.07-6.2c-.88-3.92-1.68-7.93-5.11-10.65-2.48-2-4.88-4.1-8.16-4.69.5-.07.4-.26.15-.56-2.88-3.46-6.24-6.27-10.68-7.5-.8-.22-1.85-.79-2.53-.18a4.57,4.57,0,0,0-1.68,2.45,16.3,16.3,0,0,1-1.53,4,38,38,0,0,1,.82-7.06c.15-1,1-1.28,1.75-2-1.45,0-1.18-.84-.84-1.66.09-.24.17-.48.26-.71a2.62,2.62,0,0,1,4.05-1.42c1,.62.36,1.12-.19,1.61l.09.34.17-.28c2.3-1.13,4.24,0,6.2,1,5.91,3,10,7.81,13.24,13.38a40.83,40.83,0,0,1,5.39,27.25,43.81,43.81,0,0,1-2.1,9.47.78.78,0,0,0,0,.26c0,.06-.25.06-.08.2l.11-.18c.78,0,1.14.39.92,1.2a8.13,8.13,0,0,1-.69,2.74ZM165.84,86.34c-.19,0-.41,0-.38.33a.11.11,0,0,0,.08.08c.28,0,.29-.19.33-.38l0-.13Zm2.3-1.14a2.39,2.39,0,0,0-1.51.58C167.4,85.89,167.79,85.76,168.14,85.2Z" transform="translate(-1.81 -71.29)"/><path class="cls-4" d="M217.08,94.31a30.55,30.55,0,0,0-8.67-1.08,7.23,7.23,0,0,0-3.29.83c-.87.53-1.25.17-1.73-.47a66,66,0,0,0-8.22-9.36c-.88-.81-1.75-1.62-2.68-2.36a.91.91,0,0,1-.3-1.29c.85-2,1.5-2.07,3.42-1.83,5,.6,9.37,2.94,14,4.4s9.33,3.38,14,5.1a6.19,6.19,0,0,1,.67.36c-.8.62-1.63,1.2-2.39,1.87C220.36,91.84,218.46,92.75,217.08,94.31Z" transform="translate(-1.81 -71.29)"/><path class="cls-7" d="M156.34,152.66a19.13,19.13,0,0,1,3.92-2.35c1.84-.89,3.51-2.17,5.27-3.25.4-.25.74-.72,1.32-.53.86,1.1,2.14.2,3.11.71a5.15,5.15,0,0,0-3.11-.71c2.52-1.41,5.14-.82,7.38,1.77a11.51,11.51,0,0,1,2.12,3.59c-1,.12-2,.66-2.75-.49-.16-.24-.38-.11-.51.09-.82,1.32-2.16,2.12-3.24,3.18a7.86,7.86,0,0,1-5.59,2.31c-1,0-1.35.38-1.5,1.38a9,9,0,0,1-6.17,7.66,23.23,23.23,0,0,1-5.91,1.29c-2.35-.61-2.85-1.39-3-4.71,2.23.14,4.11,1.38,6.17,2a.89.89,0,0,0,1-.48l.25-.26a.52.52,0,0,0,.3-.47c.11-.07.21-.15.06-.28l-.15.19a.48.48,0,0,0-.25.52l-.26.24-1,0a11,11,0,0,0-6.43-2.41c-.28-.3-.72-.56,0-.93.52-.28,1-.67,1.49-.94,2.49-1.34,4.16-3.54,6-5.61.33-.38.68-.74,1-1.11l2,.08c.17.27.47.24.72.3l.28.09-.16-.21c-.19-.26-.48-.23-.75-.28A3.89,3.89,0,0,0,156.34,152.66Zm14.88-4.86-.15-.1.12.13.15.11Zm-11.66,6.06-.3-.1.14.25.47.3.25.25,1.26,1.55a1.75,1.75,0,0,0-1.06-1.74l-.29-.22Zm-4.68,5.19-.12-.28s0,.08,0,.09a1.3,1.3,0,0,0,.15.18c.49,1,1.38,1.88,1,3.19C156.64,160.86,156.3,159.9,154.88,159.05Zm17-10.73-.06-.09-.07.15s.07,0,.08,0S171.89,148.35,171.91,148.32Zm-1.35-.84,0,0h-.07Zm-14.79,15.34s.07,0,.07-.08,0-.06-.06-.09-.07.06-.07.08S155.75,162.79,155.77,162.82Z" transform="translate(-1.81 -71.29)"/><path class="cls-6" d="M189.81,230.7c.86,4.12,1.26,8.3,1.81,12.47.12.88-.32.65-.86.61-6.07-.46-11.92-2.08-17.85-3.27a1.15,1.15,0,0,1-.36-.21,14.34,14.34,0,0,1,2.76-1.34,1.37,1.37,0,0,0,1-2.06,6.7,6.7,0,0,1,.7-4.2,1.33,1.33,0,0,0,0-1.84c-.86-1.14-1.65-2.33-2.52-3.59a12.43,12.43,0,0,0,1.89-.31c.93-.3,1.06-.9.42-1.63s-1.37-1.5-2.05-2.25a.67.67,0,0,0,.14-.15l14.17,3.21.18.24,0,.47c-3.44,1.82-6.88,3.63-10.44,5.22a16.46,16.46,0,0,0,2.66-.22C184.23,231.48,187,230.72,189.81,230.7Z" transform="translate(-1.81 -71.29)"/><path class="cls-5" d="M108.22,92.25c13.55-5.24,27-10.77,40.57-15.93,1.19-.46,1.58-.21,2,.79.62,1.35,2,2.7,1.84,3.94s-1.72,2.17-2.69,3.23a38.42,38.42,0,0,0-4.35,5.79c-.43.68-.71.86-1.56.49A32.24,32.24,0,0,0,129,88.28,63.45,63.45,0,0,0,113.79,91l-5.57,1.73Z" transform="translate(-1.81 -71.29)"/><path class="cls-8" d="M274.73,134.83c-7.64,3-15.46,5.57-23.18,8.38S236,149,228.21,151.94c-2.5.93-5,1.77-7.56,2.63a4.72,4.72,0,0,1-1,.13c3.23-1.85,6.56-3.52,9.89-5.17,6.14-3.05,12.26-6.17,18.46-9.09,8.86-4.16,17.79-8.17,26.69-12.23.37-.17.8-.51,1.17-.15s.13.8.1,1.22C275.81,131.19,274.74,132.89,274.73,134.83Z" transform="translate(-1.81 -71.29)"/><path class="cls-7" d="M134.26,146.08a19.93,19.93,0,0,1,3.54,0c.07.21.25.25.44.27l.25.26.27.25.28.23.26.25.24.26.28.24.14.09a1.47,1.47,0,0,0-.1-.13l-.19-.32-.26-.25-.26-.25-.27-.25-.27-.23-.28-.23a2,2,0,0,1,0-.25c4.05-.22,7.71-2.11,11.67-2.76a3.61,3.61,0,0,1,2.06.18c1.35.59,2.7,1.19,4,1.83,1.81.86,2,2.8,2.85,4.33.21.41-.3.51-.61.62a9.68,9.68,0,0,1-3.45-1.81c-.7-.52-1.29-.74-2-.09a14.06,14.06,0,0,1-4.2,2.32c-1.51.63-3.06,1.43-4.74,1.19-2.32-.32-4.78-1.68-6.39,1.34-.11.19-.44.25-.63.41a10.44,10.44,0,0,1-7.3,2.64c-1.73-.05-3.23-.89-4.79-1.52h0a.46.46,0,0,0-.25-.49,8.06,8.06,0,0,1-.47-3c.23-.23.55-.64.74-.07.25.75.84.9,1.43,1.08a7.49,7.49,0,0,1,2.33,1.25c-.06.81.44.76,1.17.61a1.29,1.29,0,0,1-1.07-.7,7.34,7.34,0,0,0-2.87-2.74.75.75,0,0,0-.68-.61c2.3-1.18,4.57-2,6.63-3.33a3.41,3.41,0,0,1,2-.34c.09.21.28.23.46.24s.14.23.27.07l-.2-.14Zm.78.93c-.08-.1-.16-.22-.27-.06s.1.11.15.17l.28.24.26.24c.08.11.15.23.28.07s-.1-.12-.15-.18l-.27-.25Zm1.67,1.64.26.26.24.26.26.25c.08.18.22.43.39.25s-.1-.3-.28-.36l-.25-.25-.28-.24-.25-.25-.26-.26-.25-.26c-.06-.05-.15-.15-.16-.14-.18.12,0,.18.06.24l.25.25Zm2.06,0,.27.24.27.25.26.25.25.25.24.28c.05,0,.14.16.15.15s0-.18-.05-.25l-.27-.25-.25-.26-.25-.27-.23-.26-.26-.26-.26-.25-.27-.1.14.24Zm-6.34.48c-.06-.1.12-.34-.17-.3l.19.28a8.58,8.58,0,0,0,.39,2.11A2,2,0,0,0,132.43,149.11Zm.14,2.33s-.06.05-.06.07,0,.06.05.09.06,0,.07-.08S132.59,151.47,132.57,151.44Zm-.25.5s-.07,0-.07.07,0,.05.05.08.06-.05.07-.07S132.33,152,132.32,151.94Z" transform="translate(-1.81 -71.29)"/><path class="cls-3" d="M86.77,113.36c0-.25-.08-.57,0-.75,1-1.5-.13-2.25-1-3.17-2.32-2.43-4.51-5-5.54-8.27a9.9,9.9,0,0,1-.37-3A1.49,1.49,0,0,1,81,96.61a1.35,1.35,0,0,1,1.6.75,16.86,16.86,0,0,0,2.33,2.52,1.91,1.91,0,0,0,1.42.74h0c.1.26.33.27.56.27.48.41,1.11.79,1,1.52-.35,1.93.85,3.07,2.16,4a43.64,43.64,0,0,0,4.5,2.62,1.83,1.83,0,0,0,2.57-.61c.3-.39.51-1,1.28-.77s1,.27.81,1.16a10.71,10.71,0,0,0-.35,3.66c.07.72-.2,1-.93,1C94.17,113.38,90.47,113.38,86.77,113.36Z" transform="translate(-1.81 -71.29)"/><path class="cls-3" d="M45.34,92a75.06,75.06,0,0,1,7.74,5,136.85,136.85,0,0,1,19.33,16.72c1.2,1.27,1.21,1.26-.27,2.1-1.71,1-1.68.94-3.12-.36-6.63-6-13-12.21-19.9-17.87a3.89,3.89,0,0,0-.92-.66C46.08,96,45.31,94.34,45.34,92Z" transform="translate(-1.81 -71.29)"/><path class="cls-5" d="M269.6,159.31a3.9,3.9,0,0,0-3.07-.41c-.71.15-.88,0-.59-.66s1.12-1.67.46-2.32-1.57.18-2.36.38-1.25.45-2.21.8l5.58-7.74a10.16,10.16,0,0,0,.79-1c2-3,3.95-6,5.93-9,.26-.39.58-1,.8,0-.06,1.69-.11,3.38-.16,5.07a1.13,1.13,0,0,0-.06,1.28c-.38,3.22-.12,6.47-.32,9.7-.56-.1-.83.33-1.18.64Z" transform="translate(-1.81 -71.29)"/><path class="cls-9" d="M162.55,96.05a16.3,16.3,0,0,0,1.53-4,4.57,4.57,0,0,1,1.68-2.45c.68-.61,1.73,0,2.53.18,4.44,1.23,7.8,4,10.68,7.5.25.3.35.49-.15.56-3.29-.07-6.59-.4-9.81.73a14.5,14.5,0,0,0-6.43,3.92A21.22,21.22,0,0,1,162.55,96.05Z" transform="translate(-1.81 -71.29)"/><path class="cls-8" d="M143.93,188.39c-1.26.77-2.51,1.56-3.78,2.31a1.84,1.84,0,0,1-2.23-.31q-10.2-8.16-20.4-16.33c-2-1.56-3.86-3.17-5.77-4.76-.29-.24-.63-.46-.71-.87,1.87.54,3.31,1.85,4.91,2.85,7.23,4.5,14.4,9.1,21.62,13.62,1.32.83,2.67,1.64,4,2.45C142.29,187.77,143.42,187.38,143.93,188.39Z" transform="translate(-1.81 -71.29)"/><path class="cls-7" d="M135.48,125.13a12.7,12.7,0,0,0-6.77-1.79,8,8,0,0,0-6.59,4.33c-.3.5-.57,1-.85,1.55-1.92.61-3.14,1.74-2.88,3.95,0,.11-.09.23-.14.34L118,133a10.59,10.59,0,0,1,.22-5.61,5.78,5.78,0,0,1,2-2.6c3.91-3.11,8.25-5,13.35-4.5,2.28.25,4.64.42,6.67,1.72a14.68,14.68,0,0,1,2.29,4.62,1.86,1.86,0,0,1-.38,2c-.44-.84-.54-1.93-1.58-2.33A13.86,13.86,0,0,0,135.48,125.13Z" transform="translate(-1.81 -71.29)"/><path class="cls-8" d="M99.54,160.57c-1.11.4-2.14-.16-3.15-.37-7-1.48-13.91-3.07-20.86-4.61a8.8,8.8,0,0,0-1.26-.11h0l-.21-.24L72.91,151c-.09-.32-.28-.67,0-1s.63,0,.93.08c5.33,1.67,10.55,3.65,15.77,5.64.71.27,1.41.58,2.13.8A33,33,0,0,1,99.54,160.57Z" transform="translate(-1.81 -71.29)"/><path class="cls-10" d="M267.86,101.16c.65.08,1-.35,1.37-.77,4.95-5.65,9.3-11.77,13.85-17.73.83-1.08,1.69-2.13,2.41-3.28a4.45,4.45,0,0,1,2.76-1.64l3.29-1.06a5.32,5.32,0,0,1-1.42,2c-4.25,4.86-8,10.07-11.95,15.18-1.47,1.92-2.9,3.86-4.36,5.78a1.68,1.68,0,0,1-.74.67c-1.47.41-2.95.76-4.43,1.1-.26.06-.6.12-.77-.24Z" transform="translate(-1.81 -71.29)"/><path class="cls-11" d="M89.72,197.23c-.27-.12-.53-.26-.81-.36-1.09-.43-1.35-.24-1.34.94s-.06,2.47,0,3.7c.06.87-.3,1.19-1.06,1.07-1.2-.18-1.31.53-1.33,1.43,0,2,.51,4,.14,6-1.37-10.14-2.59-20.31-4.53-30.37.42-.09.45.18.53.33l8.18,16.12c.15.3.25.63.37.94Z" transform="translate(-1.81 -71.29)"/><path class="cls-3" d="M176.63,158.48a64.38,64.38,0,0,1-6.78,3.18,8.63,8.63,0,0,0-3.54,2.75c-2.6,2.93-5.42,5.6-9.49,6.45-2.48.52-4.52,0-6-2.13,1-.15,1.84.49,2.86.38,4.15-.47,7-3,9.58-5.93a10.86,10.86,0,0,1,3.5-3,20.77,20.77,0,0,0,3.79-2.75,1.74,1.74,0,0,1,1.76-.31C173.72,157.61,175.18,158,176.63,158.48Z" transform="translate(-1.81 -71.29)"/><path class="cls-3" d="M151.09,156.26a4.29,4.29,0,0,0-2.11.32,26,26,0,0,1-6.24.86,6.81,6.81,0,0,0-3,1.08,11.93,11.93,0,0,1-9.26,1.49,5,5,0,0,1-2.86-1.48c4.23.43,7.87-1.36,11.49-3.14a6,6,0,0,1,3-.69,17.84,17.84,0,0,0,10.6-2.5c.62-.4,1.15-.08,1.69,0s.3.45.08.7c-1,1.14-1.81,2.48-3.16,3.28-.11-.16-.2-.19-.27,0Z" transform="translate(-1.81 -71.29)"/><path class="cls-3" d="M191.31,222.31a22.6,22.6,0,0,0,3.28-4.79c2.93-4.66,6.13-9.13,9.37-13.58.32-.44.58-.93.86-1.4.13-.24.31-.47.58-.33s.09.44,0,.66c-.81,1.87-1.54,3.77-2.43,5.59-1.62,3.31-3.22,6.62-4.53,10.07a1.89,1.89,0,0,0-.19,1v0l-.26.37c-2.2,1.66-4.13,3.69-6.74,5A10.11,10.11,0,0,1,191.31,222.31Z" transform="translate(-1.81 -71.29)"/><path class="cls-10" d="M270.47,214c.27-2,.52-4.08.81-6.12.55-3.91,1.07-7.83,1.7-11.73.54-3.35.9-6.74,1.71-10,.31,4.87.3,9.74.36,14.62,0,3.12.07,6.24-.1,9.36a1.43,1.43,0,0,1-.69,1.14C273,212.14,271.74,213,270.47,214Z" transform="translate(-1.81 -71.29)"/><path class="cls-12" d="M193.36,244.74c2.22-.82,4-2.41,5.86-3.74,5.73-4,11.39-8.12,17.08-12.2.39-.27.74-.31.25-1-.61-.91-.34-2.21-.23-3.34.07-.84,0-1.39-.95-1.7s-1.27-1.65-.92-3a10.08,10.08,0,0,1,1.29-2.9c.4-.6.49-1-.18-1.45a1.9,1.9,0,0,1-.65-2.75c.65-1.33,1.24-2.7,1.84-4.05a1.62,1.62,0,0,0,.27-1.37c-3.35,2.32-6.43,4.89-9.83,7,0-.18-.05-.37-.08-.55l8.09-5.9c1-.73,2-1.49,3-2.26,0,2.95-1.18,5.46-2.14,8-.27.7-.32,1.28.41,1.73s.58,1.08.12,1.68a6.49,6.49,0,0,0-1.33,2.53,2.22,2.22,0,0,0,.34,2.57c.62.42,1.57.47,1.62,1.5-.54,1.11-.28,2.28-.3,3.43,0,.47.29.64.73.63,1.55.54.25.89-.09,1.31a5.26,5.26,0,0,0-.65.38Q206,237,195.15,244.66a2.36,2.36,0,0,1-1.75.58C193.17,245.09,193.1,244.93,193.36,244.74ZM217.23,207s-.08.06-.07.09a.51.51,0,0,0,.07.15s.07-.05.07-.07A.61.61,0,0,0,217.23,207Z" transform="translate(-1.81 -71.29)"/><path class="cls-10" d="M171.66,170.26c-2.65,1.32-5.09,2.59-7.56,3.76-5.52,2.63-11.08,5.15-16.48,8-.84.45-1.8.43-2.61.92-.21.13-.44.09-.59-.24a1.72,1.72,0,0,1,.91-2.56l25.43-10C171,170.05,171.16,170,171.66,170.26Z" transform="translate(-1.81 -71.29)"/><path class="cls-4" d="M124.8,154.7c1.56.63,3.06,1.47,4.79,1.52a10.44,10.44,0,0,0,7.3-2.64c.19-.16.52-.22.63-.41,1.61-3,4.07-1.66,6.39-1.34,1.68.24,3.23-.56,4.74-1.19a14.06,14.06,0,0,0,4.2-2.32c.72-.65,1.31-.43,2,.09a9.68,9.68,0,0,0,3.45,1.81c-1,.67-2,1.23-3.31.67-.27-.13-.59-.16-.67-.51-.38-1.59-.9-.94-1.47-.11a3.19,3.19,0,0,1-1.52,1.1,53.73,53.73,0,0,1-8.37,2.12,1.51,1.51,0,0,1-1.61-.65c-.4-.51-.68-.4-1,0a3.16,3.16,0,0,1-1.65,1.13c-2.6,1-5.05,2.42-7.84,2.88a8,8,0,0,1-4-.16A2.87,2.87,0,0,1,124.8,154.7Z" transform="translate(-1.81 -71.29)"/><path class="cls-5" d="M150.68,167.31a23.23,23.23,0,0,0,5.91-1.29,9,9,0,0,0,6.17-7.66c.15-1,.46-1.36,1.5-1.38a7.86,7.86,0,0,0,5.59-2.31c1.08-1.06,2.42-1.86,3.24-3.18.13-.2.35-.33.51-.09.75,1.15,1.78.61,2.75.49a2.48,2.48,0,0,1,.76,1.42c.29,1.07-.47,1.9-1.51,1.56-.85-.28-2.25.07-2.16-1.54-.11,0-.23,0-.26,0-2.29,2.85-5.5,4.45-8.55,6.26a5.67,5.67,0,0,0-1.34,1.51,24.1,24.1,0,0,1-5.8,5.46A7.72,7.72,0,0,1,150.68,167.31Z" transform="translate(-1.81 -71.29)"/><path class="cls-3" d="M217.08,94.31c1.38-1.56,3.28-2.47,4.83-3.83.76-.67,1.59-1.25,2.39-1.87,1.47.52,2.93,1,4.41,1.56.62.21.72.9,1.2,1.25L219.1,95.06A6.09,6.09,0,0,1,217.08,94.31Z" transform="translate(-1.81 -71.29)"/><path class="cls-3" d="M193.4,245.24a2.36,2.36,0,0,0,1.75-.58Q206,237,216.91,229.27a5.26,5.26,0,0,1,.65-.38c.53.82.42,1.39-.46,2Q206,238.47,195,246.12a2.67,2.67,0,0,1-1.35.65A3.33,3.33,0,0,1,193.4,245.24Z" transform="translate(-1.81 -71.29)"/><path class="cls-10" d="M86.25,218c1.82,3,3.65,6.06,5.46,9.1.67,1.11,1.33,2.24,2,3.36L88,228.33a.89.89,0,0,1-.64-.72c-.23-1.59-1.18-3-1-4.68A32.84,32.84,0,0,0,86.25,218Z" transform="translate(-1.81 -71.29)"/><path class="cls-9" d="M188.53,128.13a57.87,57.87,0,0,1-1.82,7,.89.89,0,0,1-1,.72,23.47,23.47,0,0,0-3.65.33,4.65,4.65,0,0,1-3.67-1.85C182.35,133.18,186.17,131.81,188.53,128.13Z" transform="translate(-1.81 -71.29)"/><path class="cls-13" d="M85.91,147.81c-2-.22-3.87-1.2-5.78-1.85-5.49-1.85-10.93-3.85-16.4-5.78L24.59,126.37a6.52,6.52,0,0,1-.77-.43c2.41.22,4.56,1.28,6.79,2.06q24.86,8.73,49.66,17.54A31.67,31.67,0,0,1,85.91,147.81Z" transform="translate(-1.81 -71.29)"/><path class="cls-7" d="M269.6,159.31l3.61-3.18c.35-.31.62-.74,1.18-.64v8.6c-.83-2.32-2.47-1.76-4.05-1.28-.61.18-.72-.1-.8-.6C269.38,161.24,269.83,160.28,269.6,159.31Z" transform="translate(-1.81 -71.29)"/><path class="cls-10" d="M191.85,246.27q-8.9-1.56-17.79-3.1c-1.1-.19-1.94-.59-2.05-1.83,3.87.82,7.72,1.79,11.63,2.42,2.4.38,4.77,1.14,7.24,1C192.2,244.65,191.82,245.57,191.85,246.27Z" transform="translate(-1.81 -71.29)"/><path class="cls-9" d="M135.48,125.13a13.86,13.86,0,0,1,5,1.22c1,.4,1.14,1.49,1.58,2.33-.74,1.63-2.2,2.68-3.25,4.38C138.28,129.94,137.92,127.08,135.48,125.13Z" transform="translate(-1.81 -71.29)"/><path class="cls-12" d="M289,101.9c-.13,0-.32,0-.37,0-.28-.37.19-.35.29-.39,2.13-1,4.27-1.86,6.4-2.81,7.44-3.3,14.52-7.29,21.64-11.21a29.1,29.1,0,0,1,4.2-2.32,18.88,18.88,0,0,1-3.28,2.77c-.1-.17-.21-.26-.32,0h0a.49.49,0,0,0-.52.27h0c-2.94,1.55-5.89,3.09-8.82,4.67-3.65,2-7.26,4-11,5.65a6.47,6.47,0,0,0-1,.61c-.25,0-.5,0-.61.28h0c-.23,0-.45,0-.52.26h0c-.23,0-.44,0-.51.25h0a.64.64,0,0,0-.77.26h0a1.7,1.7,0,0,0-1.28.51h0a.72.72,0,0,0-.64.26h-.08c-.22,0-.45,0-.57.26h0a.72.72,0,0,0-.64.27l-.08,0a.89.89,0,0,0-.69.27h-.07A1,1,0,0,0,289,101.9Z" transform="translate(-1.81 -71.29)"/><path class="cls-2" d="M189.81,230.7c-2.84,0-5.58.78-8.38,1.15a16.46,16.46,0,0,1-2.66.22c3.56-1.59,7-3.4,10.44-5.22C189.11,228.18,189.7,229.4,189.81,230.7Z" transform="translate(-1.81 -71.29)"/><path class="cls-9" d="M209.73,115.42a6.46,6.46,0,0,0,5.56-1.08,16.25,16.25,0,0,1-5.28,5.09c-.7-.2-1.49-.12-2.1-.65a12.73,12.73,0,0,1,.57-1.37C208.85,116.72,208.76,115.73,209.73,115.42Z" transform="translate(-1.81 -71.29)"/><path class="cls-10" d="M196.08,272c.89.6,1.78,1.2,2.68,1.79-1.73,1.62-3.47,3.22-5.19,4.84-.46.44-.84.22-1.23-.08.75-1.42,1.48-2.84,2.25-4.24a1.55,1.55,0,0,0,.32-.94C195.85,273.4,196,272.69,196.08,272Z" transform="translate(-1.81 -71.29)"/><path class="cls-11" d="M209.73,115.42c-1,.31-.88,1.3-1.25,2a12.73,12.73,0,0,0-.57,1.37l-.5,0h0c-.1-.25-.23-.42-.53-.26h0c.16-.45-.26-.58-.46-.83a9.27,9.27,0,0,1,.63-6.48A4.81,4.81,0,0,0,209.73,115.42Z" transform="translate(-1.81 -71.29)"/><path class="cls-9" d="M118.25,133.51c0-.11.16-.23.14-.34-.26-2.21,1-3.34,2.88-3.95A6.62,6.62,0,0,0,122,135C120.61,134.72,119.24,134.64,118.25,133.51Z" transform="translate(-1.81 -71.29)"/><path class="cls-12" d="M274.93,139.44c-.22-1.08-.54-.43-.8,0-2,3-3.94,6-5.93,9a10.16,10.16,0,0,1-.79,1l-.6,0,7.91-11.73C275.06,138.18,275.67,138.73,274.93,139.44Z" transform="translate(-1.81 -71.29)"/><path class="cls-5" d="M195.37,223.25c-.57,1.78-2,3.08-2.76,4.74-.29.61-.52,1.36-1.24,1.69-.69-2.12-.42-3.16,1.31-4.39A18.48,18.48,0,0,1,195.37,223.25Z" transform="translate(-1.81 -71.29)"/><path class="cls-11" d="M217.23,110.51a5.12,5.12,0,0,0-3.72-4.72,2.87,2.87,0,0,0,1.4-.19,5.16,5.16,0,0,1,1.38-.1c.81-.06,1.21.28,1.35,1.13A11,11,0,0,1,217.23,110.51Z" transform="translate(-1.81 -71.29)"/><path class="cls-11" d="M139.31,255.71a3.88,3.88,0,0,1,.85.17q6.79,3.31,13.58,6.67a1.9,1.9,0,0,1,.38.32,1,1,0,0,1-.72-.17q-6.94-3.17-13.71-6.68A2.85,2.85,0,0,1,139.31,255.71Z" transform="translate(-1.81 -71.29)"/><path class="cls-12" d="M217.8,132.47l.08-.43.24-.3h0a.46.46,0,0,0,.28-.49h0l.25-.27h0a.61.61,0,0,0,.45-.57l.3-.44a.8.8,0,0,0,.53-.78h0a.74.74,0,0,0,.51-.77h0c1.48-1.37,2.42-3.17,3.72-4.68.24-.28.38-.66.8-.74l.1.08c-2.13,3.22-4.26,6.45-6.7,9.45Z" transform="translate(-1.81 -71.29)"/><path class="cls-14" d="M147.45,161.72a11,11,0,0,1,6.43,2.41c0,.17,0,.34,0,.51-2.06-.66-3.94-1.9-6.17-2C147.4,162.37,147.52,162,147.45,161.72Z" transform="translate(-1.81 -71.29)"/><path class="cls-11" d="M117.14,133c-2.12-1.36-2.12-2.52,0-4.61A28.38,28.38,0,0,0,117.14,133Z" transform="translate(-1.81 -71.29)"/><path class="cls-14" d="M128.58,153.46a7.49,7.49,0,0,0-2.33-1.25c-.59-.18-1.18-.33-1.43-1.08-.19-.57-.51-.16-.74.07-.17-.68.07-.95.76-.78.32.08.65.14,1,.21a7.34,7.34,0,0,1,2.87,2.74Z" transform="translate(-1.81 -71.29)"/><path class="cls-11" d="M141.34,122.25c1.28.72,2.51,1.49,2.32,3.24,0,.46,0,1.06-.7,1.12C142.73,125.05,141.85,123.72,141.34,122.25Z" transform="translate(-1.81 -71.29)"/><path class="cls-12" d="M117.14,133a28.38,28.38,0,0,1,0-4.61h0c.2.05.21-.11.27-.23,0-.53.29-.75.78-.79A10.59,10.59,0,0,0,118,133c-.25-.09-.23.56-.57.2,0-.11-.07-.26-.26-.2Z" transform="translate(-1.81 -71.29)"/><path class="cls-12" d="M96.77,152.11a53.41,53.41,0,0,1-5.89-2.51c.2,0,.4,0,.5-.25,2.06,1.07,4.46,1.39,6.37,2.81h-.5C97.12,152,97,151.87,96.77,152.11Z" transform="translate(-1.81 -71.29)"/><path class="cls-3" d="M175.89,226.16a12.46,12.46,0,0,1-3.15-2.49c-.34-.31-.11-.62,0-.91a16.07,16.07,0,0,1,3.23,2.93C176.24,225.92,176.3,226.11,175.89,226.16Z" transform="translate(-1.81 -71.29)"/><path class="cls-12" d="M141.34,122.25c.51,1.47,1.39,2.8,1.62,4.36l-.53,0a14.68,14.68,0,0,0-2.29-4.62C140.54,122.15,141,121.88,141.34,122.25Z" transform="translate(-1.81 -71.29)"/><path class="cls-11" d="M209.49,120c-2.38,1.18-2.44,1.15-2.94-1.6l.36.06h0c.09.26.23.43.53.26h0C207.73,119.77,209,119.29,209.49,120Z" transform="translate(-1.81 -71.29)"/><path class="cls-10" d="M90.86,199.09c-.1.74-.5.88-1.14.57l-1.11-.55V197.9A7.22,7.22,0,0,1,90.86,199.09Z" transform="translate(-1.81 -71.29)"/><path class="cls-14" d="M209.49,120c-.5-.75-1.76-.27-2.08-1.3l.5,0c.61.53,1.4.45,2.1.65C210,119.75,209.9,120.05,209.49,120Z" transform="translate(-1.81 -71.29)"/><path class="cls-15" d="M108.22,92.25v.44l-2,.58A3.4,3.4,0,0,1,108.22,92.25Z" transform="translate(-1.81 -71.29)"/><path class="cls-15" d="M156.34,152.66a3.89,3.89,0,0,1,1.66.45l-.09.1-2-.08A.55.55,0,0,1,156.34,152.66Z" transform="translate(-1.81 -71.29)"/><path class="cls-12" d="M274.71,145.79a1.13,1.13,0,0,1,.06-1.28A.86.86,0,0,1,274.71,145.79Z" transform="translate(-1.81 -71.29)"/><path class="cls-14" d="M173.62,169.12a.51.51,0,0,1,.6-.35c.05,0,.14.13.13.15C174.17,169.21,173.94,169.33,173.62,169.12Z" transform="translate(-1.81 -71.29)"/><path class="cls-12" d="M192.62,239.13a.67.67,0,0,1,.12.78Q192.1,239.61,192.62,239.13Z" transform="translate(-1.81 -71.29)"/><path class="cls-12" d="M192.85,240.92a.56.56,0,0,1,.08.76C192.59,241.46,192.54,241.21,192.85,240.92Z" transform="translate(-1.81 -71.29)"/><path class="cls-14" d="M206.91,118.5l-.36-.06c-.26-.23-.11-.51-.1-.77C206.65,117.92,207.07,118.05,206.91,118.5Z" transform="translate(-1.81 -71.29)"/><path class="cls-15" d="M134.26,146.08v.44l-.07.07c-.18,0-.37,0-.46-.24A.45.45,0,0,1,134.26,146.08Z" transform="translate(-1.81 -71.29)"/><path class="cls-12" d="M193.12,243.21a.35.35,0,0,1,0,.5C192.91,243.56,192.86,243.39,193.12,243.21Z" transform="translate(-1.81 -71.29)"/><path class="cls-15" d="M138.31,146a2,2,0,0,0,0,.25l-.09.08c-.19,0-.37-.06-.44-.27C138,145.88,138.11,145.79,138.31,146Z" transform="translate(-1.81 -71.29)"/><path class="cls-11" d="M156.14,263.87c.27.06.61-.05.79.27A.9.9,0,0,1,156.14,263.87Z" transform="translate(-1.81 -71.29)"/><path class="cls-13" d="M86.55,148.06a.56.56,0,0,1-.58-.28C86.2,147.8,86.44,147.8,86.55,148.06Z" transform="translate(-1.81 -71.29)"/><path class="cls-13" d="M87.19,148.32c-.26,0-.51,0-.65-.27A.61.61,0,0,1,87.19,148.32Z" transform="translate(-1.81 -71.29)"/><path class="cls-4" d="M124.55,154.2a.46.46,0,0,1,.25.49A.41.41,0,0,1,124.55,154.2Z" transform="translate(-1.81 -71.29)"/><path class="cls-8" d="M110.51,168c-.22,0-.41-.05-.48-.29A.46.46,0,0,1,110.51,168Z" transform="translate(-1.81 -71.29)"/><path class="cls-14" d="M175,168.67l-.1,0,.11-.1.07.07Z" transform="translate(-1.81 -71.29)"/><path class="cls-14" d="M172.73,169.42c.1-.14.29-.25.37-.11s-.13.18-.26.19S172.74,169.49,172.73,169.42Z" transform="translate(-1.81 -71.29)"/><path class="cls-10" d="M172.2,169.73c.09-.25.34-.23.53-.31,0,.07,0,.1.11.08a.6.6,0,0,1-.6.27Z" transform="translate(-1.81 -71.29)"/><path class="cls-10" d="M172.24,169.77a.29.29,0,0,1-.37.2s-.05-.06-.08-.09l.41-.15Z" transform="translate(-1.81 -71.29)"/><path class="cls-11" d="M80.82,178.93l0,.09-.1,0a.18.18,0,0,1,0-.1Z" transform="translate(-1.81 -71.29)"/><path class="cls-11" d="M168.66,84.88l-.17.28-.09-.34Z" transform="translate(-1.81 -71.29)"/><path class="cls-12" d="M321.22,85.11a.46.46,0,0,1,.45-.29A.47.47,0,0,1,321.22,85.11Z" transform="translate(-1.81 -71.29)"/><path class="cls-12" d="M317.08,88.16a.49.49,0,0,1,.52-.27C317.53,88.18,317.35,88.25,317.08,88.16Z" transform="translate(-1.81 -71.29)"/><path class="cls-10" d="M86.11,217.45a.52.52,0,0,1,.15.53A.43.43,0,0,1,86.11,217.45Z" transform="translate(-1.81 -71.29)"/><path class="cls-4" d="M86.84,100.89c-.23,0-.46,0-.56-.27C86.63,100.37,86.7,100.71,86.84,100.89Z" transform="translate(-1.81 -71.29)"/><path class="cls-9" d="M215.61,114.08l-.18.12-.06-.1a.87.87,0,0,1,.18-.11Z" transform="translate(-1.81 -71.29)"/><path class="cls-11" d="M136.31,254.17l.46.27Z" transform="translate(-1.81 -71.29)"/><path class="cls-11" d="M136.76,254.43c.2,0,.43,0,.52.27Z" transform="translate(-1.81 -71.29)"/><path class="cls-11" d="M137.27,254.69c.2,0,.44,0,.52.27Z" transform="translate(-1.81 -71.29)"/><path class="cls-11" d="M137.77,254.94c.21,0,.45,0,.53.27A.6.6,0,0,1,137.77,254.94Z" transform="translate(-1.81 -71.29)"/><path class="cls-11" d="M138.29,255.2c.2,0,.44,0,.52.27A.53.53,0,0,1,138.29,255.2Z" transform="translate(-1.81 -71.29)"/><path class="cls-11" d="M138.8,255.45c.21,0,.44,0,.52.27A.48.48,0,0,1,138.8,255.45Z" transform="translate(-1.81 -71.29)"/><path class="cls-3" d="M216.86,133.55c0-.23,0-.43.3-.49A.48.48,0,0,1,216.86,133.55Z" transform="translate(-1.81 -71.29)"/><path class="cls-11" d="M154.1,262.85c.21,0,.44,0,.53.28C154.39,263.15,154.17,263.14,154.1,262.85Z" transform="translate(-1.81 -71.29)"/><path class="cls-11" d="M154.61,263.1c.21,0,.44,0,.53.28A.43.43,0,0,1,154.61,263.1Z" transform="translate(-1.81 -71.29)"/><path class="cls-11" d="M155.12,263.36c.2,0,.44,0,.53.27A.48.48,0,0,1,155.12,263.36Z" transform="translate(-1.81 -71.29)"/><path class="cls-11" d="M155.63,263.61c.19.06.43,0,.53.27A.61.61,0,0,1,155.63,263.61Z" transform="translate(-1.81 -71.29)"/><path class="cls-3" d="M216.34,134.3a.41.41,0,0,1,.3-.48A.47.47,0,0,1,216.34,134.3Z" transform="translate(-1.81 -71.29)"/><path class="cls-11" d="M156.9,264.12c.21,0,.42.06.53.28C157.2,264.41,157,264.38,156.9,264.12Z" transform="translate(-1.81 -71.29)"/><path class="cls-11" d="M157.41,264.38l.53.26A.54.54,0,0,1,157.41,264.38Z" transform="translate(-1.81 -71.29)"/><path class="cls-11" d="M191.2,140.22l.47,0C191.53,140.48,191.37,140.42,191.2,140.22Z" transform="translate(-1.81 -71.29)"/><path class="cls-3" d="M216.1,134.62l.24-.32Z" transform="translate(-1.81 -71.29)"/><path class="cls-3" d="M216.63,133.83l.24-.29Z" transform="translate(-1.81 -71.29)"/><path class="cls-8" d="M110,167.68l-.29-.21Z" transform="translate(-1.81 -71.29)"/><path class="cls-11" d="M117.12,133c.19-.06.21.09.26.2Z" transform="translate(-1.81 -71.29)"/><path class="cls-3" d="M217.14,133.07a.3.3,0,0,1,.29-.28Z" transform="translate(-1.81 -71.29)"/><path class="cls-11" d="M117.39,128.21c-.06.12-.07.28-.27.23Z" transform="translate(-1.81 -71.29)"/><path class="cls-11" d="M89.9,197l.12.27-.3,0Z" transform="translate(-1.81 -71.29)"/><path class="cls-12" d="M317.59,87.9c.11-.25.22-.16.32,0Z" transform="translate(-1.81 -71.29)"/><path class="cls-2" d="M198,219.86l.26-.37C198.3,219.7,198.14,219.78,198,219.86Z" transform="translate(-1.81 -71.29)"/><path class="cls-6" d="M174.75,223.08c-.1,0-.26,0-.16-.2s.2,0,.3.05A.67.67,0,0,1,174.75,223.08Z" transform="translate(-1.81 -71.29)"/><path class="cls-8" d="M110.79,168.22l-.28-.26Z" transform="translate(-1.81 -71.29)"/><path class="cls-5" d="M195.65,223a.24.24,0,0,1-.28.24Z" transform="translate(-1.81 -71.29)"/><path class="cls-2" d="M189.24,226.38l-.18-.24C189.22,226.14,189.29,226.21,189.24,226.38Z" transform="translate(-1.81 -71.29)"/><path class="cls-3" d="M74.08,155.25l.21.24Z" transform="translate(-1.81 -71.29)"/><path class="cls-4" d="M151.06,156.26c.07-.23.16-.2.27,0Z" transform="translate(-1.81 -71.29)"/><path class="cls-3" d="M198.26,161.37l-.14.11.11-.15Z" transform="translate(-1.81 -71.29)"/><path class="cls-11" d="M157.93,264.62a.41.41,0,0,0,.2.14Z" transform="translate(-1.81 -71.29)"/><path class="cls-5" d="M195.92,222.76l-.28.26Z" transform="translate(-1.81 -71.29)"/><path class="cls-10" d="M215.6,222a2.22,2.22,0,0,1-.34-2.57,6.49,6.49,0,0,1,1.33-2.53c.66.69,0,1.33-.13,2C216.29,220,215.65,220.91,215.6,222Z" transform="translate(-1.81 -71.29)"/><path class="cls-10" d="M217.65,227.58c-.44,0-.75-.16-.73-.63,0-1.15-.24-2.32.3-3.43,1.05.45.65,1.36.56,2.07A12.1,12.1,0,0,0,217.65,227.58Z" transform="translate(-1.81 -71.29)"/><path class="cls-1" d="M226.4,119.93c.09-1,.86-1.08,1.56-1.17,4.55-.56,9-1.59,13.51-2.44l2.35-.43.33-.11.72-.12a.76.76,0,0,0,.81-.19.51.51,0,0,1,.24,0l.26-.1,1-.18.53.26c-5.09,1.41-10.26,2.49-15.43,3.56C230.33,119.37,228.36,119.61,226.4,119.93Z" transform="translate(-1.81 -71.29)"/><path class="cls-14" d="M257.59,112.57l10.83-3.15c4.19-1.22,8.31-2.63,12.45-4.13,0,.4-.29.53-.5.7-.21,0-.42,0-.52.26h0l-8.45,2.68q-6.69,2.16-13.5,3.92Z" transform="translate(-1.81 -71.29)"/><path class="cls-12" d="M257.59,112.57l.31.28c-3.4.88-6.73,2-10.2,2.56l-.53-.26Z" transform="translate(-1.81 -71.29)"/><path class="cls-3" d="M292.59,100.63a1.7,1.7,0,0,1,1.28-.51C293.62,100.74,293.09,100.64,292.59,100.63Z" transform="translate(-1.81 -71.29)"/><path class="cls-3" d="M289,101.9a1,1,0,0,1,.82-.26.93.93,0,0,1-.82.54Z" transform="translate(-1.81 -71.29)"/><path class="cls-12" d="M225.24,122.55c0-.17.07-.33.27-.35s.15.08.15.13-.16.26-.32.3Z" transform="translate(-1.81 -71.29)"/><path class="cls-3" d="M293.86,100.12a.64.64,0,0,1,.77-.26C294.46,100.2,294.15,100.13,293.86,100.12Z" transform="translate(-1.81 -71.29)"/><path class="cls-3" d="M295.65,99.36c.11-.29.36-.28.61-.28A.71.71,0,0,1,295.65,99.36Z" transform="translate(-1.81 -71.29)"/><path class="cls-3" d="M295.14,99.61c.07-.28.29-.28.52-.26A.47.47,0,0,1,295.14,99.61Z" transform="translate(-1.81 -71.29)"/><path class="cls-3" d="M294.63,99.86c.07-.28.28-.29.51-.25C295.05,99.85,294.85,99.88,294.63,99.86Z" transform="translate(-1.81 -71.29)"/><path class="cls-3" d="M292,100.89a.72.72,0,0,1,.64-.26C292.47,100.91,292.21,100.89,292,100.89Z" transform="translate(-1.81 -71.29)"/><path class="cls-3" d="M291.31,101.14c.12-.23.35-.25.57-.26A.54.54,0,0,1,291.31,101.14Z" transform="translate(-1.81 -71.29)"/><path class="cls-3" d="M290.69,101.4a.72.72,0,0,1,.64-.27C291.19,101.41,290.94,101.4,290.69,101.4Z" transform="translate(-1.81 -71.29)"/><path class="cls-3" d="M289.92,101.65a.89.89,0,0,1,.69-.27A.68.68,0,0,1,289.92,101.65Z" transform="translate(-1.81 -71.29)"/><path class="cls-12" d="M225.34,122.63l-.29.48L225,123l.29-.48Z" transform="translate(-1.81 -71.29)"/><path class="cls-5" d="M274.5,112.38l-.12.1.11-.11Z" transform="translate(-1.81 -71.29)"/><path class="cls-3" d="M220.43,128.44a.74.74,0,0,1-.51.77C219.89,128.82,219.9,128.45,220.43,128.44Z" transform="translate(-1.81 -71.29)"/><path class="cls-3" d="M219.92,129.2a.8.8,0,0,1-.53.78C219.39,129.6,219.38,129.22,219.92,129.2Z" transform="translate(-1.81 -71.29)"/><path class="cls-12" d="M245.68,115.47a.76.76,0,0,1-.81.19A.85.85,0,0,1,245.68,115.47Z" transform="translate(-1.81 -71.29)"/><path class="cls-3" d="M219.09,130.42a.61.61,0,0,1-.45.57A.5.5,0,0,1,219.09,130.42Z" transform="translate(-1.81 -71.29)"/><path class="cls-14" d="M279.85,106.25c.1-.23.31-.25.52-.26A.49.49,0,0,1,279.85,106.25Z" transform="translate(-1.81 -71.29)"/><path class="cls-3" d="M218.4,131.25a.46.46,0,0,1-.28.49A.44.44,0,0,1,218.4,131.25Z" transform="translate(-1.81 -71.29)"/><path class="cls-3" d="M218.12,131.74l-.24.3Z" transform="translate(-1.81 -71.29)"/><path class="cls-3" d="M218.64,131l-.25.27Z" transform="translate(-1.81 -71.29)"/><path class="cls-12" d="M244.15,115.78l-.33.11Z" transform="translate(-1.81 -71.29)"/><path class="cls-12" d="M246.18,115.33l-.26.1Z" transform="translate(-1.81 -71.29)"/><path class="cls-1" d="M96.77,152.11c.2-.24.35-.14.48.07Z" transform="translate(-1.81 -71.29)"/><path class="cls-11" d="M168.14,85.2c-.35.56-.74.69-1.51.58A2.39,2.39,0,0,1,168.14,85.2Z" transform="translate(-1.81 -71.29)"/><path class="cls-11" d="M165.87,86.37c0,.19-.05.41-.33.38a.11.11,0,0,1-.08-.08c0-.28.19-.29.38-.33Z" transform="translate(-1.81 -71.29)"/><path class="cls-11" d="M191.44,136.26l-.11.18c-.17-.14,0-.14.08-.2Z" transform="translate(-1.81 -71.29)"/><path class="cls-11" d="M165.84,86.34l.07-.1,0,.13Z" transform="translate(-1.81 -71.29)"/><path class="cls-15" d="M154.88,159.05c1.42.85,1.76,1.81,1,3.18.36-1.31-.53-2.18-1-3.19Z" transform="translate(-1.81 -71.29)"/><path class="cls-5" d="M166.85,146.53a5.15,5.15,0,0,1,3.11.71c-1-.51-2.25.39-3.11-.71Z" transform="translate(-1.81 -71.29)"/><path class="cls-15" d="M160.32,154.37a1.75,1.75,0,0,1,1.06,1.74c-.42-.52-.84-1-1.25-1.55Z" transform="translate(-1.81 -71.29)"/><path class="cls-15" d="M153.86,164.64c0-.17,0-.34,0-.51l1,0,.05,0A.89.89,0,0,1,153.86,164.64Z" transform="translate(-1.81 -71.29)"/><path class="cls-15" d="M158.63,153.51c-.25-.06-.55,0-.72-.3l.09-.1c.27,0,.56,0,.75.28Z" transform="translate(-1.81 -71.29)"/><path class="cls-5" d="M171.91,148.32s0,.07,0,.09-.05,0-.08,0l.07-.15Z" transform="translate(-1.81 -71.29)"/><path class="cls-15" d="M159.56,153.85l.47.3c-.05,0-.11.1-.16.16l-.47-.3Z" transform="translate(-1.81 -71.29)"/><path class="cls-15" d="M154.89,159a1.3,1.3,0,0,1-.15-.18s0-.06,0-.09l.12.28Z" transform="translate(-1.81 -71.29)"/><path class="cls-15" d="M155.11,163.86a.48.48,0,0,1,.25-.52l.09.09a.52.52,0,0,1-.3.47Z" transform="translate(-1.81 -71.29)"/><path class="cls-15" d="M155.36,163.34l.15-.19c.15.13.05.21-.06.28Z" transform="translate(-1.81 -71.29)"/><path class="cls-15" d="M155.15,163.9l-.25.26-.05,0a3.07,3.07,0,0,1,.26-.25Z" transform="translate(-1.81 -71.29)"/><path class="cls-5" d="M171.22,147.8l.12.14-.15-.11Z" transform="translate(-1.81 -71.29)"/><path class="cls-5" d="M171.19,147.83l-.12-.13.15.1Z" transform="translate(-1.81 -71.29)"/><polygon class="cls-5" points="168.75 76.19 168.72 76.13 168.79 76.14 168.75 76.19"/><path class="cls-15" d="M158.75,153.39l.16.21-.28-.09Z" transform="translate(-1.81 -71.29)"/><path class="cls-15" d="M159.4,154l-.14-.25.3.09Z" transform="translate(-1.81 -71.29)"/><path class="cls-15" d="M160,154.15l.29.22-.19.19-.26-.25C159.92,154.25,160,154.2,160,154.15Z" transform="translate(-1.81 -71.29)"/><path class="cls-15" d="M155.77,162.82s-.06-.06-.06-.09,0,0,.07-.08.06.07.06.09S155.79,162.8,155.77,162.82Z" transform="translate(-1.81 -71.29)"/><path class="cls-15" d="M132.43,149.11a2,2,0,0,1,.41,2.09,8.58,8.58,0,0,1-.39-2.11Z" transform="translate(-1.81 -71.29)"/><path class="cls-14" d="M128.68,153.37a1.29,1.29,0,0,0,1.07.7c-.73.15-1.23.2-1.17-.61Z" transform="translate(-1.81 -71.29)"/><path class="cls-15" d="M137.58,149.31c.18.06.46.16.28.36s-.31-.07-.39-.25Z" transform="translate(-1.81 -71.29)"/><path class="cls-15" d="M132.45,149.09l-.19-.28c.29,0,.11.2.17.3Z" transform="translate(-1.81 -71.29)"/><path class="cls-15" d="M137.05,148.82l.28.24-.12.12-.24-.27Z" transform="translate(-1.81 -71.29)"/><path class="cls-15" d="M139.31,149.12l-.27-.25.12-.11.23.26Z" transform="translate(-1.81 -71.29)"/><path class="cls-15" d="M138.51,148.39l-.14-.24.27.1Z" transform="translate(-1.81 -71.29)"/><path class="cls-15" d="M137.47,149.42a3.07,3.07,0,0,1-.26-.25l.12-.11.25.25Z" transform="translate(-1.81 -71.29)"/><path class="cls-15" d="M139.39,149l.25.27-.07.08-.26-.25Z" transform="translate(-1.81 -71.29)"/><path class="cls-15" d="M136.29,148.05l.25.26-.1.1-.25-.26Z" transform="translate(-1.81 -71.29)"/><path class="cls-15" d="M139.82,149.62l-.25-.25.07-.08.25.26Z" transform="translate(-1.81 -71.29)"/><path class="cls-15" d="M140.06,149.9l-.24-.28.07-.07.27.25Z" transform="translate(-1.81 -71.29)"/><path class="cls-15" d="M139.86,147.8l.1.13-.14-.09Z" transform="translate(-1.81 -71.29)"/><path class="cls-15" d="M140.16,149.8c.1.07.2.14.05.25s-.1-.1-.15-.15Z" transform="translate(-1.81 -71.29)"/><path class="cls-15" d="M136.19,148.15c-.08-.06-.24-.12-.06-.24,0,0,.1.09.16.14Z" transform="translate(-1.81 -71.29)"/><path class="cls-15" d="M132.57,151.44s.06.06.06.08,0,0-.07.08-.05-.06-.05-.09S132.55,151.47,132.57,151.44Z" transform="translate(-1.81 -71.29)"/><path class="cls-15" d="M138.64,148.25l.26.25a1.59,1.59,0,0,1-.13.13l-.26-.24Z" transform="translate(-1.81 -71.29)"/><path class="cls-15" d="M132.32,151.94s.05.06.05.08-.05,0-.07.07-.05-.06-.05-.08S132.29,152,132.32,151.94Z" transform="translate(-1.81 -71.29)"/><path class="cls-15" d="M139.67,147.48l.19.32,0,0-.28-.24Z" transform="translate(-1.81 -71.29)"/><path class="cls-15" d="M135.59,147.49c0,.06.16.16.15.18s-.2,0-.28-.07Z" transform="translate(-1.81 -71.29)"/><path class="cls-15" d="M139.54,147.6l-.24-.26.11-.11.26.25Z" transform="translate(-1.81 -71.29)"/><path class="cls-15" d="M136.71,148.65l-.27-.24.1-.1.26.26Z" transform="translate(-1.81 -71.29)"/><path class="cls-15" d="M136.8,148.57l.25.25-.08.09c-.09-.09-.18-.17-.26-.26Z" transform="translate(-1.81 -71.29)"/><path class="cls-15" d="M135.32,147.24l.27.25-.13.11-.26-.24Z" transform="translate(-1.81 -71.29)"/><path class="cls-15" d="M139.3,147.34l-.26-.25.11-.11.26.25Z" transform="translate(-1.81 -71.29)"/><path class="cls-15" d="M135.2,147.36l-.28-.24L135,147l.28.23Z" transform="translate(-1.81 -71.29)"/><path class="cls-15" d="M139,148.87l-.27-.24a1.59,1.59,0,0,0,.13-.13c.08.09.17.17.26.26Z" transform="translate(-1.81 -71.29)"/><path class="cls-15" d="M138.89,146.73a3.07,3.07,0,0,0,.26.25l-.11.11-.28-.24Z" transform="translate(-1.81 -71.29)"/><path class="cls-15" d="M134.92,147.12c0-.06-.16-.15-.15-.17s.19,0,.27.06Z" transform="translate(-1.81 -71.29)"/><path class="cls-15" d="M138.61,146.5l.27.23-.12.12-.27-.24Z" transform="translate(-1.81 -71.29)"/><path class="cls-15" d="M134.25,146.52l.2.14c-.13.16-.2.06-.27-.07Z" transform="translate(-1.81 -71.29)"/><path class="cls-15" d="M138.49,146.61l-.25-.26.09-.08.28.23Z" transform="translate(-1.81 -71.29)"/><path class="cls-6" d="M217.23,207a.61.61,0,0,1,.07.17s-.05.05-.07.07a.51.51,0,0,1-.07-.15S217.2,207,217.23,207Z" transform="translate(-1.81 -71.29)"/><path class="cls-14" d="M207.43,118.75c-.3.17-.44,0-.53-.26C207.2,118.33,207.33,118.5,207.43,118.75Z" transform="translate(-1.81 -71.29)"/></svg>